<?xml version="1.0" standalone="no"?>
<!DOCTYPE svg PUBLIC "-//W3C//DTD SVG 20010904//EN"
 "http://www.w3.org/TR/2001/REC-SVG-20010904/DTD/svg10.dtd">
<svg version="1.0" xmlns="http://www.w3.org/2000/svg"
 width="1024.000000pt" height="1024.000000pt" viewBox="0 0 1024.000000 1024.000000"
 preserveAspectRatio="xMidYMid meet">
<metadata>
Created by potrace 1.16, written by Peter Selinger 2001-2019
</metadata>
<g transform="translate(0.000000,1024.000000) scale(0.100000,-0.100000)"
fill="#000000" stroke="none">
<path d="M6670 10228 c0 -5 4 -7 9 -4 9 6 21 -14 27 -42 4 -21 16 -29 21 -14
5 14 23 6 23 -10 0 -6 -3 -8 -6 -5 -4 3 -15 2 -25 -4 -16 -8 -19 -6 -19 10 0
11 -5 23 -10 26 -6 4 -8 11 -5 16 4 5 2 9 -4 9 -5 0 -11 -3 -14 -7 -2 -5 -2
-3 -1 4 2 7 -1 15 -6 18 -9 5 -12 -8 -9 -31 1 -12 -24 -22 -47 -18 -12 2 -26
0 -29 -6 -4 -6 -12 -7 -18 -3 -8 5 -8 2 0 -9 15 -18 7 -29 -15 -21 -11 5 -13
3 -7 -7 6 -10 4 -12 -7 -7 -12 4 -17 -2 -21 -26 -5 -37 0 -47 14 -27 9 12 10
12 5 -3 -3 -10 -6 -23 -6 -29 0 -6 -6 -5 -16 2 -8 8 -14 9 -12 4 2 -5 -1 -10
-7 -11 -12 -3 -7 41 6 45 5 2 9 9 9 15 0 6 -16 -4 -35 -23 -19 -18 -32 -37
-29 -41 2 -4 -4 -13 -15 -19 -18 -9 -20 -8 -15 7 5 15 4 16 -5 3 -21 -29 -13
-40 19 -29 16 6 27 15 24 20 -3 5 2 9 11 9 28 0 11 -24 -26 -37 -20 -6 -33
-17 -31 -25 3 -10 1 -11 -9 0 -19 17 -45 16 -30 -2 8 -10 8 -16 -3 -25 -11 -9
-16 -9 -22 0 -5 8 -3 9 6 4 9 -5 11 -4 6 4 -4 6 -12 9 -17 5 -5 -3 -7 -10 -3
-15 3 -6 -2 -9 -11 -7 -9 2 -23 -6 -31 -17 -12 -18 -11 -23 6 -38 19 -16 20
-15 17 6 -1 12 -6 25 -12 29 -5 4 0 6 12 5 13 0 25 -7 28 -15 2 -7 0 -10 -5
-7 -6 3 -10 1 -10 -4 0 -6 6 -11 13 -11 7 -1 5 -6 -5 -14 -10 -7 -15 -16 -12
-19 3 -3 8 -22 10 -42 3 -32 1 -36 -16 -32 -11 3 -21 -1 -24 -10 -3 -8 -1 -11
4 -8 6 3 10 1 10 -4 0 -6 -9 -11 -20 -11 -14 0 -18 5 -13 17 4 10 2 14 -4 10
-6 -4 -13 -1 -16 7 -5 12 -25 14 -47 6 -3 -1 -8 -2 -12 -1 -5 0 -8 -5 -8 -13
0 -8 -6 -18 -12 -22 -7 -4 -10 -4 -6 1 4 4 3 16 -3 27 -10 19 -11 19 -24 2 -7
-10 -11 -25 -10 -33 2 -9 4 -19 4 -24 1 -4 15 0 32 9 22 11 30 12 27 3 -2 -7
-12 -13 -22 -15 -17 -2 -48 -35 -40 -43 2 -2 10 2 19 9 10 8 15 9 15 1 0 -6
-6 -11 -12 -12 -7 -1 -2 -4 12 -8 19 -5 21 -8 9 -13 -8 -3 -26 2 -39 12 -22
16 -22 20 -10 36 13 15 13 16 1 9 -11 -6 -13 -4 -8 8 3 10 2 17 -3 17 -5 0 -7
7 -3 16 5 14 2 13 -16 -2 -62 -52 -76 -66 -57 -60 16 5 17 4 6 -9 -10 -12 -9
-16 5 -21 13 -5 15 -14 11 -36 -4 -21 -2 -27 7 -22 6 4 4 -1 -5 -12 -13 -13
-21 -15 -29 -7 -6 6 -18 9 -25 6 -8 -3 -14 -1 -14 5 0 18 29 21 40 4 9 -14 10
-12 4 8 -4 14 -7 31 -7 38 0 6 -11 12 -24 12 -22 0 -27 -10 -26 -48 1 -10 -2
-10 -13 -1 -12 10 -18 9 -27 -1 -10 -10 -9 -11 2 -5 9 5 12 4 7 -3 -4 -7 -14
-12 -22 -12 -8 0 -13 -4 -10 -9 3 -5 -8 -15 -25 -23 -22 -11 -26 -17 -16 -21
9 -3 18 1 22 10 4 12 9 13 16 6 18 -18 2 -30 -39 -28 -35 1 -39 -1 -35 -19 3
-13 2 -17 -4 -9 -10 15 -51 -17 -45 -35 2 -7 0 -11 -5 -10 -4 2 -18 -4 -31
-13 -18 -13 -20 -18 -9 -28 8 -6 18 -7 22 -3 5 4 5 1 1 -6 -4 -7 -13 -9 -19
-5 -7 4 -6 0 2 -10 12 -15 11 -17 -4 -17 -10 0 -15 3 -12 6 9 10 -12 46 -23
39 -6 -3 -5 -16 0 -31 6 -14 8 -29 5 -34 -3 -5 -1 -11 4 -14 5 -3 12 1 15 10
5 13 9 14 20 5 10 -8 16 -9 21 -1 3 5 11 10 18 10 6 0 2 -6 -8 -14 -11 -8 -23
-12 -27 -10 -5 3 -8 0 -8 -5 0 -6 -6 -10 -12 -8 -7 1 -12 -4 -10 -11 1 -8 -2
-11 -8 -7 -6 3 -8 10 -5 15 3 5 1 11 -4 15 -6 3 -8 12 -5 19 8 21 -11 27 -32
10 -10 -9 -13 -13 -6 -9 7 4 12 0 12 -9 0 -10 -6 -13 -16 -9 -9 3 -20 0 -25
-8 -4 -8 -13 -15 -19 -15 -5 -1 -14 -2 -20 -3 -14 -2 -12 -38 3 -45 6 -3 -1
-2 -17 1 -24 5 -28 3 -23 -9 3 -9 0 -21 -6 -27 -6 -6 -9 -11 -6 -12 2 0 15 -2
28 -5 20 -4 22 -2 12 10 -7 8 -8 17 -3 20 9 5 27 -21 24 -35 -1 -3 10 -5 23
-3 14 1 25 -2 25 -7 0 -5 -18 -8 -40 -7 -22 2 -40 7 -40 11 0 5 -4 6 -9 2 -5
-3 -12 -1 -16 5 -4 7 -13 7 -26 0 -11 -6 -24 -8 -29 -5 -6 3 -10 -1 -10 -9 0
-9 -4 -16 -10 -16 -14 0 -12 -27 3 -33 6 -3 2 -4 -10 -4 -12 1 -19 5 -16 11 3
5 1 6 -4 3 -15 -10 -22 -56 -9 -61 6 -2 0 -5 -13 -5 -20 -1 -22 2 -13 11 15
15 15 28 0 28 -6 0 -9 -3 -5 -6 3 -4 -1 -13 -9 -21 -8 -8 -12 -19 -8 -24 3 -5
0 -8 -8 -7 -7 2 -12 -4 -10 -12 2 -12 0 -12 -10 1 -11 14 -15 14 -26 3 -6 -7
-12 -18 -12 -24 0 -5 -6 -9 -12 -8 -7 2 -12 -3 -10 -9 1 -7 -2 -13 -8 -13 -5
0 -10 -8 -10 -17 0 -16 -2 -16 -10 -3 -9 13 -12 13 -21 -3 -6 -9 -14 -15 -20
-12 -5 4 -6 -2 -2 -11 3 -10 2 -15 -3 -12 -5 3 -15 0 -22 -8 -7 -8 -8 -14 -2
-14 5 0 10 -4 10 -10 0 -5 -8 -6 -17 -3 -15 6 -16 4 -5 -9 8 -10 10 -29 7 -49
l-6 -33 22 20 22 19 -12 -23 c-14 -26 -6 -66 8 -43 7 10 9 9 14 -3 4 -9 3 -15
-1 -13 -4 1 -7 0 -8 -3 0 -3 -6 -15 -13 -27 -13 -26 -31 -29 -49 -11 -7 7 -20
13 -30 13 -10 0 -16 7 -16 17 1 14 -4 17 -21 14 -17 -3 -22 0 -20 12 2 10 4
23 4 31 1 8 10 3 22 -13 21 -27 21 -27 36 -6 8 11 20 17 26 13 7 -3 3 3 -7 15
-11 12 -26 22 -35 21 -9 0 -11 -3 -4 -5 7 -3 9 -12 6 -20 -4 -11 -9 -12 -19
-3 -8 6 -11 15 -8 20 3 5 -2 6 -10 3 -8 -3 -16 -15 -18 -27 -2 -12 -8 -22 -15
-22 -7 0 -18 -6 -25 -12 -6 -7 -18 -13 -25 -13 -9 0 -10 -6 -3 -24 7 -20 6
-23 -10 -19 -10 3 -21 0 -24 -6 -5 -7 3 -11 21 -11 22 0 25 -2 13 -11 -11 -8
-12 -12 -2 -16 6 -2 12 -10 12 -16 -1 -7 -9 -2 -20 11 -17 20 -22 22 -42 11
-13 -6 -33 -21 -45 -32 -16 -14 -23 -16 -23 -7 0 7 -3 11 -6 8 -7 -8 18 -48
30 -48 4 0 3 6 -3 14 -8 10 -9 16 -1 21 12 7 11 8 14 -27 3 -28 -4 -28 -36 -1
-14 13 -17 12 -24 -9 -4 -13 -7 -26 -6 -30 1 -5 -6 -8 -15 -8 -14 0 -15 -2 -5
-9 7 -4 12 -14 10 -22 -2 -10 6 -13 27 -12 24 2 26 0 13 -8 -14 -8 -27 -8 -67
0 -2 1 2 7 8 15 9 10 9 16 1 21 -8 5 -6 13 5 25 10 11 15 25 12 32 -3 8 -6 6
-6 -5 -1 -11 -6 -15 -13 -11 -6 4 -8 3 -4 -4 3 -6 -3 -13 -14 -17 -17 -5 -19
-9 -9 -21 10 -13 8 -13 -15 -4 -15 5 -25 6 -22 1 4 -5 1 -11 -6 -13 -22 -8 3
-28 27 -22 12 3 26 1 29 -5 5 -7 1 -8 -9 -5 -12 5 -14 2 -8 -12 5 -16 4 -17
-8 -8 -8 6 -25 15 -38 19 -18 5 -22 4 -16 -6 6 -9 3 -11 -11 -6 -17 6 -17 6
-3 -6 13 -10 14 -14 3 -24 -10 -10 -14 -9 -17 5 -3 10 -5 6 -6 -10 -1 -21 -6
-28 -22 -28 -11 0 -18 -4 -14 -9 3 -6 14 -8 24 -6 11 2 27 -3 38 -10 10 -8 13
-15 6 -15 -6 0 -14 3 -16 8 -5 6 -34 7 -84 3 -17 -2 -17 -2 0 -12 10 -6 24 -8
31 -6 8 3 19 0 25 -6 8 -8 11 -8 11 2 0 7 5 9 10 6 20 -12 9 -36 -20 -47 -26
-9 -29 -13 -18 -27 10 -13 10 -14 -2 -4 -8 8 -19 9 -30 3 -12 -6 -17 -5 -17 6
0 9 6 13 16 9 13 -5 14 -4 4 6 -22 22 -14 29 27 24 24 -3 40 -1 40 5 0 5 -3 9
-7 9 -5 -1 -10 -1 -13 0 -21 7 -99 7 -94 0 3 -5 -3 -9 -13 -9 -15 0 -16 -2 -3
-11 12 -8 11 -9 -6 -7 -11 2 -21 -1 -22 -6 0 -5 -7 -13 -16 -18 -9 -5 -16 -16
-16 -23 0 -8 -3 -14 -7 -13 -16 4 -53 -14 -48 -23 4 -5 2 -9 -4 -9 -6 0 -17
-13 -26 -30 -16 -30 -21 -54 -7 -32 6 9 13 7 28 -10 10 -13 12 -18 4 -12 -17
12 -77 18 -66 7 4 -4 -8 -13 -26 -19 -26 -9 -32 -16 -30 -34 2 -18 0 -20 -12
-11 -11 9 -15 7 -19 -9 -5 -21 -27 -28 -27 -9 0 5 5 7 12 3 7 -4 8 -3 4 5 -11
17 -23 5 -30 -29 -3 -17 -10 -29 -15 -25 -6 3 -8 -3 -6 -13 4 -25 -5 -38 -34
-47 -16 -5 -21 -4 -17 4 4 6 14 11 22 11 8 0 14 9 14 23 -1 20 -2 21 -14 5 -7
-10 -18 -18 -25 -18 -6 0 -11 -10 -11 -22 0 -12 -3 -19 -6 -15 -6 6 -24 -6
-52 -35 -9 -10 -23 -18 -30 -18 -12 0 -12 -3 -2 -15 9 -11 9 -15 1 -15 -7 0
-10 -4 -6 -9 6 -11 -33 -36 -42 -27 -3 3 -12 -2 -20 -12 -8 -9 -11 -11 -7 -3
5 9 3 12 -5 7 -7 -4 -9 -17 -6 -29 4 -12 3 -17 -2 -12 -4 6 -15 11 -24 11 -17
1 -19 -12 -7 -32 5 -7 -1 -9 -19 -6 -22 4 -25 2 -21 -15 4 -15 1 -20 -11 -19
-20 4 -74 -50 -76 -76 -1 -10 -10 -27 -19 -36 -12 -12 -16 -13 -14 -3 2 7 -4
16 -12 19 -8 2 -12 1 -8 -3 4 -5 3 -14 -3 -22 -9 -10 -8 -13 5 -13 17 0 22
-15 7 -24 -5 -3 -11 1 -15 9 -8 21 -23 19 -37 -6 -9 -17 -7 -25 12 -45 26 -28
39 -31 39 -8 0 8 -4 12 -10 9 -5 -3 -10 -2 -10 4 0 9 34 33 50 35 3 1 4 7 2
14 -2 6 2 12 8 12 5 0 9 3 9 8 -4 21 2 32 13 26 8 -5 9 -1 4 12 -4 13 2 9 18
-10 22 -24 27 -26 32 -12 3 9 11 16 16 16 7 0 6 -5 -1 -13 -6 -8 -9 -17 -6
-20 3 -4 2 -5 -2 -2 -3 3 -12 0 -20 -7 -11 -9 -13 -8 -11 3 2 8 -7 15 -22 17
-14 2 -22 1 -18 -4 4 -4 3 -13 -3 -21 -9 -10 -8 -13 0 -13 8 0 7 -6 -3 -16 -9
-8 -20 -13 -25 -9 -5 3 -12 1 -16 -5 -3 -5 -2 -10 4 -10 6 0 8 -7 4 -16 -4
-10 1 -17 16 -21 32 -8 25 -20 -11 -20 -18 0 -25 2 -15 4 9 3 15 9 11 14 -3 5
-10 7 -15 3 -5 -3 -17 0 -26 8 -15 11 -16 11 -9 -7 5 -15 4 -17 -5 -8 -6 6
-19 9 -28 5 -14 -5 -13 -3 2 12 9 10 14 22 11 28 -4 5 -14 -2 -23 -16 -10 -14
-20 -23 -24 -20 -4 4 -11 -5 -17 -20 -13 -35 -13 -34 8 -39 15 -4 15 -5 -2 -6
-16 -1 -16 -3 -6 -17 13 -15 25 -72 13 -60 -4 3 -17 -1 -30 -10 -25 -16 -71
-29 -59 -16 4 4 12 8 17 8 5 1 13 2 18 3 5 0 4 14 -2 31 -9 23 -8 32 2 42 11
11 12 8 7 -15 -5 -21 -4 -27 5 -21 9 5 10 2 6 -12 -7 -18 -7 -18 8 0 12 16 12
22 2 28 -9 6 -8 8 3 8 13 1 13 2 0 13 -8 7 -15 18 -16 25 -3 40 -5 45 -11 38
-11 -11 -12 -36 -1 -36 6 0 5 -6 -2 -15 -7 -8 -20 -15 -29 -15 -13 0 -14 2 -2
9 16 10 24 41 11 41 -15 0 -21 -18 -8 -23 7 -3 3 -6 -9 -6 -13 -1 -23 -7 -23
-15 0 -8 -8 -13 -17 -12 -10 0 -22 -9 -28 -22 -5 -13 -20 -25 -32 -29 -13 -3
-24 -13 -24 -22 -2 -22 -2 -23 6 -43 5 -13 2 -18 -9 -18 -9 0 -16 -4 -16 -9 0
-5 10 -7 23 -5 12 2 16 1 8 -2 -11 -5 -9 -10 9 -24 l22 -17 -22 2 c-12 1 -25
7 -30 14 -5 9 -10 10 -14 2 -4 -6 -13 -11 -19 -11 -7 0 -4 5 6 11 14 8 15 14
7 24 -8 10 -6 15 10 20 11 3 18 11 14 16 -3 5 -17 0 -31 -11 -14 -11 -30 -17
-36 -13 -6 4 -8 0 -5 -9 4 -8 2 -21 -3 -29 -6 -10 -9 -10 -9 -1 0 6 -5 12 -11
12 -22 0 -1 -25 27 -32 18 -4 8 -5 -28 -4 -32 2 -58 -1 -58 -6 0 -5 -6 -6 -12
-2 -7 4 -4 -2 6 -15 11 -12 26 -19 33 -16 8 2 11 0 8 -5 -3 -6 -1 -10 4 -10
17 0 13 21 -6 36 -16 12 -15 13 9 4 15 -5 36 -7 45 -4 10 2 8 -1 -4 -7 -13 -7
-23 -15 -23 -19 0 -12 54 -9 70 4 8 6 3 -3 -10 -21 -14 -18 -29 -32 -34 -32
-5 -1 -3 6 4 14 8 10 9 15 2 15 -6 0 -15 -7 -20 -16 -6 -11 -11 -13 -16 -5 -4
6 -2 11 4 11 6 0 8 5 5 10 -5 8 -11 7 -21 -1 -11 -9 -14 -9 -14 0 0 7 -8 11
-17 9 -10 -2 -17 2 -16 8 1 7 -6 10 -17 7 -11 -3 -20 -10 -20 -15 0 -5 4 -7 9
-3 5 3 12 1 16 -5 3 -5 1 -11 -4 -11 -6 -1 -15 -3 -21 -4 -5 -1 -17 -3 -26 -4
-11 -1 -14 -7 -10 -17 5 -12 2 -15 -9 -10 -9 3 -13 2 -10 -4 6 -9 -7 -14 -21
-7 -3 1 -10 -6 -15 -16 -6 -9 -15 -15 -21 -11 -6 4 -6 -1 1 -14 9 -18 8 -23
-9 -32 -11 -6 -17 -16 -14 -22 4 -7 3 -8 -5 -4 -6 4 -9 11 -7 15 3 4 -1 8 -8
8 -8 0 -12 -7 -9 -15 5 -11 1 -13 -17 -7 -15 5 -20 4 -16 -4 4 -6 18 -11 32
-11 17 0 27 -8 34 -26 6 -14 8 -30 5 -34 -3 -5 3 -13 12 -19 10 -6 14 -10 8
-11 -20 0 -35 17 -29 33 3 10 1 17 -6 17 -6 0 -9 4 -6 9 3 5 -1 12 -10 15 -9
4 -13 2 -8 -5 3 -6 -6 -3 -22 7 -27 19 -28 19 -21 0 6 -16 5 -17 -8 -6 -10 8
-15 9 -15 2 0 -6 -8 -9 -17 -6 -11 4 -14 2 -8 -3 14 -12 17 -40 5 -48 -5 -3
-11 -1 -11 4 -1 6 -3 16 -4 21 -1 6 -3 15 -4 21 -1 8 -5 8 -16 -1 -8 -7 -22
-10 -30 -6 -9 3 -13 2 -10 -4 8 -14 -12 -13 -38 2 -12 6 -29 13 -37 14 -8 1
-26 5 -39 8 -13 3 -31 1 -41 -4 -13 -7 -22 -5 -31 7 -12 15 -12 16 4 10 11 -4
16 -3 12 3 -3 6 -1 10 5 10 6 0 9 4 6 9 -3 5 -15 7 -26 4 -16 -4 -28 -22 -36
-55 -1 -5 -3 -11 -4 -15 -1 -5 -2 -11 -1 -15 0 -4 -6 -5 -15 -1 -11 4 -12 8
-4 13 8 5 9 10 2 14 -7 4 -1 17 14 33 25 26 32 63 13 63 -5 0 -7 6 -3 13 4 6
3 8 -1 4 -5 -4 -10 -21 -11 -38 -3 -37 -7 -42 -39 -46 -25 -4 -36 19 -15 32 6
3 7 -1 4 -9 -7 -18 4 -20 25 -7 12 8 12 12 2 25 -10 12 -11 19 -2 30 8 10 9
16 1 21 -5 3 -10 0 -10 -7 0 -10 -3 -9 -9 2 -6 8 -8 17 -5 21 2 4 -2 12 -9 17
-10 9 -13 4 -15 -19 -2 -21 1 -28 9 -23 7 4 9 3 5 -4 -3 -5 -3 -12 1 -15 5 -2
2 -2 -5 0 -15 3 -42 -20 -42 -36 0 -14 17 -14 23 -1 3 6 4 5 3 -2 -4 -19 -25
-21 -32 -3 -4 8 0 23 8 33 7 9 15 31 16 47 l1 30 -11 -30 c-14 -38 -28 -56
-39 -49 -9 5 8 43 25 55 13 10 -2 29 -22 29 -15 0 -15 -2 -2 -10 13 -8 12 -10
-2 -10 -10 0 -18 7 -18 15 0 8 7 15 15 15 22 0 18 18 -6 31 -17 9 -19 13 -8
20 11 7 11 9 -3 9 -9 0 -19 -6 -21 -12 -3 -7 -6 -3 -6 10 -1 25 -9 27 -34 7
-18 -13 -17 -14 5 -18 21 -4 21 -4 -3 -6 -16 0 -29 5 -33 15 -9 22 -8 24 9 18
17 -7 21 11 5 21 -6 4 -7 12 -4 18 4 7 4 9 0 5 -5 -4 -20 4 -34 17 -19 18 -28
21 -34 12 -5 -8 -8 -6 -9 8 -1 11 -1 23 -1 27 1 3 -5 12 -14 19 -8 7 -14 8
-13 3 4 -22 -2 -31 -21 -29 -26 2 -38 15 -14 16 15 0 14 2 -6 10 -19 8 -21 12
-11 18 11 7 9 10 -8 16 -11 3 -25 3 -31 0 -6 -4 -13 7 -17 25 -3 17 -9 27 -12
22 -4 -6 -14 -4 -26 5 -18 15 -19 15 -1 9 16 -5 17 -4 6 9 -7 8 -16 12 -21 9
-5 -3 -9 -1 -9 5 0 6 -16 18 -35 27 -19 9 -35 23 -35 31 0 8 -5 11 -10 8 -6
-3 -10 -1 -10 6 0 7 -3 9 -6 6 -11 -11 26 -58 39 -51 7 4 9 3 4 -1 -4 -5 0
-17 10 -27 15 -17 15 -18 -3 -18 -14 0 -15 -3 -6 -9 10 -6 9 -11 -4 -22 -10
-8 -15 -9 -11 -3 4 7 0 14 -8 18 -18 6 -30 -10 -13 -18 7 -3 3 -3 -9 0 -18 4
-22 2 -17 -11 4 -10 13 -13 25 -10 11 4 19 2 19 -4 0 -16 -40 -13 -46 4 -3 8
-14 17 -25 20 -12 4 -18 13 -15 28 2 12 -4 36 -12 52 -9 17 -15 33 -14 38 1 4
-2 7 -6 7 -12 0 -52 39 -52 50 0 6 5 10 11 10 5 0 7 -5 3 -12 -5 -8 0 -9 15
-5 19 5 21 2 15 -16 -6 -19 -5 -20 9 -9 10 9 17 10 22 2 3 -5 0 -10 -7 -10
-10 0 -10 -2 1 -9 11 -7 11 -9 0 -14 -9 -4 -8 -6 5 -6 12 -1 16 4 13 14 -4 8
-2 17 3 20 11 7 12 4 14 -37 2 -21 -1 -25 -11 -16 -10 8 -12 7 -7 -6 6 -15 22
-20 50 -17 6 1 15 -8 20 -20 9 -19 11 -20 23 -5 11 13 11 16 -2 16 -8 0 -18
10 -22 23 -4 13 -8 17 -12 10 -8 -22 -20 -14 -18 12 2 14 -1 27 -6 31 -5 3 -7
10 -4 15 6 8 2 10 -32 13 -13 1 -63 56 -63 69 0 5 -5 5 -11 2 -6 -5 -4 -12 8
-21 10 -7 13 -14 7 -14 -12 0 -40 29 -37 38 1 3 6 8 12 11 6 4 -5 7 -23 8 -30
1 -34 -2 -30 -20 2 -15 0 -17 -7 -10 -6 6 -12 22 -12 36 -1 14 -6 25 -12 24
-5 -1 -10 8 -9 20 0 13 -2 21 -4 18 -3 -3 -11 0 -19 7 -11 9 -12 7 -7 -8 7
-19 6 -19 -12 0 -14 13 -16 20 -6 23 7 3 0 13 -20 27 -21 15 -37 20 -44 14 -8
-6 -11 -3 -10 8 0 9 -4 19 -10 21 -7 2 -11 -4 -10 -13 0 -9 -6 -19 -14 -21
-10 -3 -11 -2 -3 4 15 10 11 39 -7 56 -10 10 -11 9 -6 -1 4 -7 2 -19 -4 -27
-6 -8 -9 -19 -5 -25 10 -16 -11 -12 -25 5 -10 12 -10 15 0 15 10 0 10 3 0 15
-7 8 -19 15 -26 15 -8 0 -14 9 -13 23 1 15 3 17 6 5 5 -18 33 -33 33 -18 0 6
-6 10 -12 10 -10 0 -10 2 -1 8 9 6 8 12 -6 24 -17 15 -20 15 -25 1 -5 -12 -9
-13 -20 -4 -15 13 -32 -1 -22 -18 3 -5 -1 -14 -9 -21 -9 -8 -15 -8 -15 -2 0 6
6 13 13 16 6 4 2 4 -10 2 -26 -5 -28 1 -9 26 7 10 17 14 21 10 5 -4 5 -2 2 5
-4 6 -4 13 0 16 5 2 2 2 -5 1 -6 -2 -12 0 -12 5 0 5 -13 7 -30 5 -16 -2 -32 2
-36 8 -5 7 -3 8 6 3 9 -5 11 -4 6 4 -4 6 -11 9 -16 6 -5 -3 -11 -1 -15 5 -4 6
-10 8 -15 5 -4 -3 -11 2 -14 11 -3 8 -10 13 -15 9 -6 -3 -15 4 -21 16 -9 15
-19 20 -36 16 -16 -3 -28 2 -35 12 -9 14 -10 14 -6 0 3 -9 -1 -16 -8 -16 -8 0
-11 7 -7 16 5 14 3 14 -11 2 -9 -7 -24 -10 -33 -7 -14 5 -15 4 -4 -9 11 -13
10 -14 -3 -10 -8 4 -18 2 -22 -4 -3 -6 -1 -11 5 -11 7 0 10 -6 8 -12 -3 -7
-21 -13 -41 -13 -30 0 -34 2 -22 11 8 6 12 14 8 17 -3 4 -1 7 6 7 6 0 14 -7
17 -15 4 -8 11 -15 16 -15 6 0 5 7 -2 15 -10 12 -10 19 -2 27 16 16 15 35 -2
41 -8 3 -16 -2 -19 -14 -5 -18 -3 -18 11 -7 15 12 16 11 3 -4 -7 -10 -20 -18
-27 -18 -8 0 -14 -4 -14 -9 0 -16 -59 -41 -66 -29 -4 6 -3 8 3 5 14 -9 49 34
45 56 -2 9 -12 17 -23 17 -10 0 -19 6 -19 13 0 8 -3 8 -9 -2 -7 -11 -13 -12
-23 -4 -19 17 -100 25 -92 10 5 -8 2 -8 -7 1 -16 14 -33 16 -24 2 3 -5 -1 -10
-10 -10 -9 0 -14 3 -12 8 3 4 -18 7 -46 7 -37 0 -52 -4 -52 -14 0 -9 -14 -14
-42 -15 -23 -1 -40 1 -38 5 3 4 -9 6 -25 5 -16 0 -32 -7 -35 -14 -3 -9 -14
-12 -28 -9 -12 3 -33 -1 -47 -8 -14 -8 -19 -14 -11 -15 8 0 12 -3 8 -6 -3 -3
-12 -2 -19 2 -24 15 -51 11 -56 -8 -5 -19 -32 -26 -32 -7 0 5 5 7 12 3 7 -5 8
-3 3 6 -6 10 -10 10 -20 -3 -6 -9 -22 -17 -36 -19 -30 -5 -65 -24 -61 -35 1
-4 -2 -8 -7 -8 -5 0 -13 -4 -18 -9 -5 -5 -3 -6 4 -2 8 5 13 1 13 -10 0 -16 -1
-16 -20 1 -12 11 -20 13 -20 6 0 -7 -4 -9 -10 -6 -5 3 -10 1 -10 -4 0 -6 -10
-11 -21 -11 -16 0 -20 -5 -16 -20 3 -11 1 -18 -3 -15 -5 3 -11 1 -15 -5 -4 -6
-10 -8 -15 -5 -11 7 -42 -24 -34 -36 3 -5 9 -7 13 -5 4 3 8 -2 8 -10 0 -11 -6
-9 -24 8 -28 26 -30 15 -4 -18 l19 -25 16 22 c11 17 13 26 4 36 -7 9 -7 13 1
13 6 0 11 -4 11 -10 0 -16 27 -12 34 5 3 8 11 15 18 15 9 0 9 -3 0 -12 -17
-17 -15 -28 6 -22 16 5 16 5 -1 -6 -9 -6 -15 -16 -11 -21 4 -6 12 -5 22 3 13
9 12 7 -2 -9 -10 -12 -16 -29 -12 -38 3 -9 2 -13 -4 -10 -6 3 -10 16 -10 28 0
26 -10 41 -29 45 -9 2 -12 -4 -9 -21 4 -21 1 -24 -24 -22 -21 2 -28 -2 -28
-16 0 -10 -5 -21 -12 -25 -7 -4 -8 -3 -4 4 4 7 3 12 -3 12 -5 0 -18 3 -28 7
-16 6 -16 5 -5 -10 8 -9 12 -24 9 -34 -4 -14 -5 -13 -6 5 -1 21 -26 41 -37 29
-11 -10 -11 -42 -1 -55 6 -7 6 -12 1 -11 -22 4 -33 -2 -28 -15 3 -8 1 -22 -4
-31 -8 -16 -10 -16 -15 -1 -4 9 -2 16 3 16 6 0 10 5 10 10 0 7 -7 7 -20 0 -11
-6 -18 -15 -15 -20 11 -18 -14 -60 -37 -60 -18 0 -20 2 -8 9 8 6 18 7 22 5 4
-3 8 0 8 6 0 6 -8 10 -17 8 -12 -2 -17 3 -15 15 2 9 -2 17 -8 17 -9 0 -14 -14
-11 -32 0 -5 -8 -8 -18 -8 -16 0 -19 -7 -19 -32 1 -18 3 -27 5 -20 6 15 23 16
23 1 0 -6 -6 -17 -14 -25 -18 -18 -16 -96 3 -102 9 -3 11 0 6 8 -5 9 -4 11 4
6 14 -9 5 -26 -15 -26 -12 0 -14 -36 -14 -227 l1 -228 18 50 c39 108 54 125
414 453 373 341 382 347 552 347 103 0 114 -2 175 -31 41 -20 271 -188 627
-460 755 -577 945 -722 1091 -833 110 -84 124 -92 141 -80 10 8 911 833 2003
1834 1091 1001 2012 1845 2046 1876 69 62 176 121 262 144 52 13 37 14 -232
13 -204 -1 -285 -4 -281 -12 4 -6 0 -5 -8 1 -18 14 -139 15 -139 1z"/>
<path d="M7650 10224 c71 -19 106 -36 1278 -603 616 -297 1018 -498 1058 -527
108 -76 202 -217 238 -354 14 -53 15 -45 15 170 1 168 -2 229 -11 239 -8 9 -9
12 -1 7 8 -4 11 10 9 51 -1 45 -5 59 -18 61 -9 2 -19 10 -22 18 -4 11 -1 11
19 -2 15 -10 25 -12 25 -5 0 6 -6 11 -12 11 -8 0 -9 3 -3 8 16 12 16 32 0 38
-8 3 -13 9 -10 14 7 11 -22 46 -31 37 -5 -4 -3 -16 4 -27 7 -12 8 -21 2 -25
-6 -4 -7 -11 -4 -17 4 -6 2 -8 -4 -4 -6 3 -13 2 -17 -4 -4 -6 -11 -8 -16 -5
-5 4 -9 1 -9 -4 0 -6 -5 -11 -11 -11 -8 0 -8 5 1 15 7 8 18 15 25 15 18 0 38
27 26 34 -5 3 -11 0 -14 -6 -3 -7 -3 4 -1 25 2 35 0 38 -17 34 -17 -5 -18 -3
-8 9 10 12 9 13 -6 8 -14 -6 -16 -4 -10 7 7 11 6 12 -6 3 -13 -11 -59 -3 -59
10 0 3 11 1 25 -4 16 -6 25 -6 25 0 0 6 -13 13 -30 16 -16 4 -28 10 -27 14 1
4 -2 7 -8 7 -17 -2 -52 -51 -49 -70 1 -9 -2 -15 -7 -11 -14 8 -11 -4 7 -32 16
-23 16 -24 -2 -18 -18 5 -18 5 0 -10 11 -9 15 -16 9 -16 -6 0 -16 7 -23 15 -7
8 -9 15 -5 15 5 0 0 9 -10 20 -10 11 -21 18 -25 15 -4 -2 -7 2 -7 10 0 17 14
20 19 5 2 -6 11 -4 23 5 14 12 15 15 4 12 -12 -4 -16 2 -16 24 0 15 4 26 9 23
4 -3 8 -1 8 5 0 5 -16 8 -36 7 -34 -4 -35 -3 -18 15 12 13 21 16 29 9 6 -5 15
-7 18 -3 4 3 7 2 7 -3 0 -6 7 -19 16 -30 14 -17 15 -17 10 -1 -4 12 -2 16 7
11 6 -4 2 3 -11 16 -13 12 -29 23 -35 24 -7 1 -17 5 -24 9 -6 4 -14 3 -18 -3
-4 -6 -11 -7 -17 -4 -6 4 -9 1 -6 -7 8 -20 -10 -49 -26 -43 -7 3 -13 17 -13
31 0 15 -9 32 -19 40 -10 7 -13 13 -7 13 7 0 11 8 10 19 -1 13 -9 18 -31 19
-16 0 -33 8 -38 16 -5 8 -15 13 -22 10 -7 -3 -16 2 -20 11 -3 9 -10 13 -16 10
-6 -4 -8 -12 -4 -18 3 -7 -1 -4 -9 6 -8 9 -20 17 -26 17 -7 0 -9 5 -5 12 4 6
3 8 -3 5 -6 -4 -16 0 -23 8 -16 19 -40 19 -40 0 0 -8 -6 -15 -13 -15 -8 0 -14
7 -14 15 0 8 4 12 9 9 4 -3 8 2 8 10 0 10 -7 13 -26 10 -17 -3 -23 -1 -19 7
10 16 -16 30 -32 17 -18 -14 -16 -33 4 -49 15 -13 15 -12 5 8 -7 12 -8 24 -3
27 5 3 11 -4 14 -15 4 -13 10 -19 19 -14 7 3 4 -1 -6 -9 -11 -9 -23 -16 -28
-16 -4 0 -8 -7 -8 -16 0 -13 3 -14 14 -5 11 9 15 8 20 -5 4 -9 4 -19 1 -22 -3
-3 -5 0 -5 6 0 7 -5 12 -11 12 -5 0 -7 -4 -4 -10 3 -5 1 -10 -5 -10 -6 0 -8
-6 -4 -12 4 -8 3 -9 -2 -5 -9 9 -10 13 -12 65 -1 22 -6 32 -14 29 -7 -2 -12
-11 -10 -18 3 -11 1 -12 -9 -2 -10 11 -9 16 6 26 10 8 15 19 11 25 -4 7 -2 12
4 12 6 0 8 5 4 11 -3 6 -9 7 -13 3 -3 -5 -15 -16 -26 -24 -19 -14 -19 -14 -6
3 8 10 9 17 3 17 -6 0 -14 -5 -18 -11 -3 -6 -17 -8 -31 -4 -26 6 -57 -11 -48
-26 3 -4 -4 -6 -16 -4 -37 7 -49 43 -18 54 12 3 12 1 -1 -14 -14 -17 -13 -18
3 -12 9 3 17 2 17 -4 0 -5 11 -2 24 8 21 15 23 20 10 29 -18 14 -18 25 1 18 8
-3 17 -14 20 -25 8 -24 17 -24 46 1 l24 20 -26 -9 c-23 -8 -28 -7 -32 10 -4
17 -3 18 9 8 11 -9 14 -8 14 4 0 11 -7 15 -21 12 -12 -3 -31 6 -47 21 -15 13
-32 22 -39 20 -6 -3 -14 2 -17 10 -3 9 -11 12 -16 9 -6 -4 -18 -1 -27 7 -10 8
-18 9 -20 3 -2 -8 -64 -12 -83 -5 -3 1 -16 1 -29 0 -17 -1 -22 2 -18 13 4 11
0 13 -15 9 -15 -4 -17 -7 -6 -13 10 -7 9 -9 -3 -9 -9 0 -23 8 -30 18 -7 9 -10
14 -5 10 5 -4 17 -3 28 3 18 10 18 11 -7 31 -21 17 -29 18 -38 8 -9 -10 -8
-12 5 -7 10 3 20 2 22 -2 9 -15 -6 -21 -26 -10 -14 8 -17 14 -9 23 6 7 8 16 4
20 -4 4 0 4 10 0 10 -3 17 -1 17 5 0 6 -9 11 -20 11 -11 0 -20 -4 -20 -10 0
-5 -4 -10 -9 -10 -5 0 -7 8 -4 19 3 10 0 22 -6 25 -6 4 -11 2 -11 -3 0 -6 -10
-10 -22 -8 -15 1 -22 -3 -20 -11 1 -8 -2 -11 -8 -7 -6 3 -7 11 -4 17 5 7 1 9
-9 5 -14 -5 -16 -2 -11 21 6 26 6 26 -9 7 -16 -20 -16 -20 -11 1 4 16 0 23
-15 27 -24 6 -27 -3 -8 -22 10 -10 8 -11 -6 -5 -10 3 -17 3 -16 -2 3 -20 -2
-34 -12 -34 -8 0 -8 4 0 14 9 11 9 15 -1 19 -10 4 -11 7 0 18 20 21 14 39 -13
39 -14 0 -25 -4 -25 -9 0 -5 -3 -16 -6 -24 -3 -10 2 -17 13 -20 17 -4 17 -5
-1 -6 -16 -1 -16 -3 -6 -17 8 -8 15 -25 16 -38 2 -19 -3 -22 -27 -22 -15 0
-31 6 -33 13 -6 14 15 14 25 0 3 -5 9 -2 12 7 4 9 1 16 -6 16 -8 0 -8 3 2 9
11 7 10 11 -7 20 -15 8 -23 8 -28 -1 -4 -7 -3 -8 4 -4 7 4 12 1 12 -10 0 -13
-3 -14 -14 -4 -9 7 -14 25 -11 46 2 29 0 34 -19 34 -12 0 -16 -3 -10 -8 15
-10 14 -39 -2 -39 -7 0 -11 8 -9 18 4 18 -31 34 -41 18 -3 -5 1 -9 8 -9 7 0 2
-7 -10 -16 -13 -9 -19 -20 -15 -27 5 -9 3 -9 -8 0 -8 6 -18 11 -22 11 -5 0
-12 4 -15 8 -4 4 -1 4 6 0 7 -5 12 -1 12 10 0 13 3 14 14 5 10 -8 16 -9 21 -1
3 5 3 10 -1 10 -3 0 -1 7 6 15 7 9 21 13 31 10 11 -4 19 -2 19 5 0 6 -4 9 -9
6 -5 -3 -14 1 -21 9 -10 12 -16 13 -26 4 -8 -6 -11 -15 -8 -20 3 -5 0 -9 -6
-9 -7 0 -9 7 -6 16 4 12 2 15 -9 10 -18 -6 -21 19 -3 30 6 4 8 3 5 -3 -4 -6 0
-13 7 -16 17 -7 39 16 28 28 -4 5 -2 5 5 1 20 -11 21 8 1 29 -16 16 -18 17
-13 2 5 -11 1 -19 -9 -23 -24 -9 -31 3 -15 23 9 11 10 14 2 9 -7 -4 -13 -3
-13 3 0 6 -7 7 -17 4 -10 -4 -14 -2 -9 5 7 11 -31 28 -41 18 -4 -3 1 -6 10 -6
9 0 17 -5 17 -11 0 -7 -10 -5 -25 5 -32 21 -32 21 -37 -20 -4 -31 -3 -34 9
-19 7 10 10 22 6 28 -3 6 -1 7 6 3 6 -4 8 -12 5 -18 -4 -6 1 -8 15 -3 13 4 21
2 21 -5 0 -6 -4 -8 -10 -5 -5 3 -10 2 -10 -4 0 -6 -7 -7 -17 -4 -10 4 -14 2
-10 -4 4 -7 0 -10 -10 -9 -10 2 -18 8 -18 14 0 16 -12 25 -25 17 -8 -5 -7 -11
2 -23 12 -14 10 -14 -12 -2 -14 7 -27 13 -30 12 -3 -1 -5 6 -6 16 -2 36 -4 42
-15 42 -5 0 -7 -4 -4 -10 3 -5 1 -10 -5 -10 -6 0 -10 6 -8 14 2 8 0 15 -4 15
-26 3 -28 0 -18 -20 7 -11 9 -23 6 -27 -3 -3 -6 0 -6 6 0 7 -11 12 -24 12 -13
0 -26 7 -30 15 -3 8 -1 15 4 15 6 0 10 -4 10 -10 0 -5 8 -10 18 -10 14 0 15 2
2 10 -13 9 -13 10 0 10 13 0 13 1 0 10 -11 7 -9 9 10 8 14 -1 30 -6 37 -11 7
-5 16 -6 21 -3 8 5 10 -1 14 -44 1 -11 8 -20 14 -20 13 0 13 17 1 38 -10 14 1
35 13 27 5 -3 7 -12 4 -20 -3 -7 3 -18 14 -24 17 -9 20 -7 26 20 7 37 1 50
-19 42 -8 -3 -15 0 -15 7 0 10 -3 10 -14 1 -8 -7 -17 -8 -19 -3 -7 10 -156 8
-181 -3 -13 -6 -17 -5 -13 2 5 8 -1 7 -18 0 -14 -7 -25 -16 -25 -20 0 -5 -5
-5 -11 -1 -8 4 -3 11 12 20 20 10 -31 12 -301 13 -305 0 -322 -1 -270 -15z"/>
<path d="M6685 6694 c-544 -416 -1024 -781 -1066 -812 -299 -225 -989 -756
-989 -763 0 -4 62 -54 138 -111 75 -56 144 -108 152 -115 8 -6 330 -251 715
-545 385 -293 1002 -763 1370 -1044 l670 -511 3 1163 c1 640 1 1688 0 2329
l-3 1164 -990 -755z m509 -558 c-3 -17 2 -28 13 -35 13 -7 14 -10 4 -11 -11 0
-9 -5 5 -22 15 -19 16 -20 2 -9 -10 7 -18 10 -18 7 0 -4 -7 0 -16 8 -21 22
-40 21 -23 -1 10 -11 10 -14 2 -9 -13 7 -14 4 -18 -45 -1 -15 -5 -34 -8 -43
-4 -9 -3 -16 2 -16 4 0 7 -30 5 -67 -1 -50 3 -73 14 -86 15 -16 14 -17 -1 -11
-10 3 -17 1 -17 -5 0 -6 4 -11 8 -11 5 0 9 -6 9 -14 0 -8 -5 -14 -11 -13 -6 1
-9 -5 -7 -13 2 -8 4 -31 4 -50 0 -19 5 -38 11 -42 8 -5 7 -8 -1 -8 -7 0 -10
-7 -6 -17 4 -11 3 -14 -5 -9 -15 9 -11 -27 6 -46 6 -8 9 -17 6 -20 -3 -3 -7
-22 -9 -42 -2 -28 1 -37 16 -41 10 -4 19 -11 19 -16 0 -6 -4 -7 -10 -4 -5 3
-10 1 -10 -5 0 -6 -5 -8 -12 -4 -7 5 -8 3 -4 -5 5 -7 14 -10 22 -7 7 3 16 0
20 -6 4 -6 3 -8 -4 -4 -6 3 -13 2 -16 -3 -6 -10 16 -21 41 -21 13 0 14 2 2 18
-13 15 -12 16 4 3 9 -8 15 -16 12 -19 -3 -3 -1 -10 5 -16 6 -8 2 -12 -13 -13
-17 -2 -19 0 -7 7 12 8 11 10 -6 10 -12 0 -32 9 -46 20 l-25 19 5 -24 c2 -15
9 -22 16 -18 6 4 6 0 -2 -9 -14 -18 -5 -51 13 -45 6 3 16 -3 23 -13 9 -15 8
-17 -11 -12 -12 2 -28 10 -36 16 -12 9 -12 8 -3 -10 7 -14 8 -25 1 -32 -5 -7
-6 -10 -3 -7 4 3 13 0 21 -6 10 -9 17 -8 28 1 8 7 15 8 15 2 0 -14 -25 -33
-33 -25 -4 3 -7 -1 -7 -11 0 -10 -5 -14 -12 -10 -7 4 -8 3 -4 -5 4 -6 12 -9
17 -6 16 11 10 -7 -8 -22 -17 -14 -17 -14 0 -9 9 3 17 1 17 -4 0 -5 -8 -10
-17 -12 -13 -2 -9 -9 17 -27 19 -12 27 -20 18 -17 -22 7 -22 -1 -2 -34 14 -23
14 -23 9 -2 -4 13 -2 22 4 22 6 0 11 -7 11 -15 0 -8 4 -15 10 -15 5 0 7 -7 3
-16 -3 -8 -12 -13 -19 -10 -7 3 -16 1 -19 -5 -4 -5 -10 -7 -15 -4 -15 9 -18
-10 -4 -23 11 -10 14 -10 14 0 0 9 3 9 10 -2 13 -20 -12 -34 -26 -15 -10 13
-12 13 -17 -6 -4 -15 -2 -19 8 -15 21 8 28 -11 7 -20 -9 -4 -19 -7 -22 -6 -12
1 3 -84 18 -100 17 -20 3 -25 -17 -5 -11 10 -11 8 -2 -10 6 -12 9 -36 7 -54
-3 -26 2 -38 22 -56 14 -12 23 -26 19 -30 -4 -4 3 -13 15 -21 19 -11 19 -12 3
-7 -34 11 -37 10 -43 -4 -3 -9 0 -11 8 -6 9 5 11 4 6 -4 -6 -9 -11 -9 -21 -1
-11 10 -13 3 -10 -34 2 -26 0 -44 -5 -41 -4 3 -6 -4 -3 -15 3 -11 9 -18 13
-15 4 3 13 -2 20 -10 10 -12 16 -13 29 -3 14 12 14 11 2 -5 -10 -13 -17 -14
-26 -7 -15 13 -30 -3 -20 -20 3 -5 2 -10 -3 -10 -5 0 -9 -7 -9 -15 0 -8 4 -15
9 -15 4 0 8 5 8 10 0 17 26 11 46 -12 10 -12 13 -18 7 -14 -8 4 -13 1 -13 -9
0 -9 4 -14 9 -10 5 3 12 1 15 -4 4 -5 -2 -8 -11 -7 -10 2 -18 11 -18 22 0 28
-15 34 -36 16 -13 -11 -16 -19 -8 -27 7 -7 13 -5 20 5 9 13 10 12 5 -2 -3 -11
2 -19 15 -23 10 -4 19 -11 19 -17 0 -7 -4 -7 -13 1 -10 8 -17 7 -26 -2 -10 -9
-11 -8 -6 6 4 10 2 17 -4 17 -6 0 -11 -7 -11 -16 0 -8 -3 -13 -7 -11 -5 3 -8
-10 -8 -29 0 -19 3 -34 8 -34 5 0 7 6 4 14 -7 19 18 42 28 26 5 -8 11 -7 23 2
13 11 14 11 7 -1 -6 -11 -4 -13 8 -8 11 4 14 2 10 -9 -3 -8 -12 -13 -19 -10
-19 7 -18 -9 2 -28 8 -9 11 -16 5 -16 -6 0 -11 -6 -11 -14 0 -8 -4 -17 -9 -20
-5 -3 -7 10 -5 29 2 23 -1 33 -8 29 -6 -4 -8 1 -4 14 4 11 2 23 -4 27 -5 3
-10 -2 -10 -14 0 -10 -3 -27 -6 -36 -4 -9 -3 -15 2 -13 10 3 14 -5 14 -28 0
-12 -3 -14 -12 -6 -10 8 -14 -2 -15 -45 -3 -58 2 -77 18 -67 6 4 6 11 -1 19
-8 10 -8 15 0 20 6 4 14 4 17 1 4 -3 1 -6 -6 -6 -7 0 -10 -4 -6 -9 3 -6 15 -8
26 -6 24 5 37 -21 19 -38 -10 -9 -11 -9 -6 1 4 6 2 12 -3 12 -6 0 -11 -6 -11
-12 0 -9 -3 -8 -10 2 -7 12 -12 12 -22 2 -14 -14 -19 -122 -6 -122 5 0 8 6 9
13 0 9 2 9 5 0 3 -7 12 -9 20 -6 16 6 19 33 3 33 -5 0 -7 -4 -4 -10 4 -6 -1
-7 -11 -3 -15 5 -15 7 0 15 9 5 21 6 26 3 13 -8 13 -65 1 -65 -5 0 -13 -10
-16 -22 -17 -58 -17 -58 -1 -52 9 3 16 2 16 -4 0 -13 -27 -9 -42 6 -9 9 -9 12
0 12 7 0 12 8 12 18 0 10 7 28 16 40 15 22 15 23 -11 18 -31 -6 -46 -16 -24
-16 12 0 11 -2 -1 -10 -13 -9 -13 -11 0 -20 10 -7 11 -10 2 -10 -8 0 -11 -12
-9 -37 2 -21 0 -50 -4 -65 -5 -19 -3 -28 8 -32 8 -3 12 -10 9 -14 -3 -5 4 -18
14 -30 21 -22 27 -37 11 -27 -5 3 -12 1 -16 -5 -3 -5 -2 -10 3 -10 5 0 9 -12
8 -27 -1 -25 2 -28 29 -26 25 2 27 0 12 -8 -9 -6 -26 -7 -37 -4 -11 3 -30 -1
-44 -10 -18 -12 -26 -13 -32 -4 -4 8 -3 9 4 5 7 -4 12 -2 12 3 0 6 6 11 14 11
19 0 28 14 20 34 -5 12 -10 13 -25 5 -10 -5 -19 -6 -19 -2 0 4 -5 2 -12 -5 -7
-7 -16 -12 -21 -12 -5 0 1 9 14 21 13 11 18 18 12 14 -8 -4 -13 0 -13 9 0 19
-11 20 -29 4 -11 -11 -13 -10 -8 4 4 11 -3 22 -18 32 -31 20 -36 20 -29 -1 4
-13 3 -14 -3 -6 -7 10 -17 7 -41 -10 -32 -24 -34 -41 -4 -30 10 5 13 3 8 -6
-5 -7 -15 -9 -25 -6 -9 4 -21 8 -28 9 -7 1 -16 6 -20 11 -4 4 -3 5 4 1 6 -3
16 2 22 11 6 10 11 14 11 10 0 -5 5 -5 11 -1 8 4 7 9 -2 15 -7 4 -19 3 -25 -2
-8 -7 -14 -6 -19 1 -4 6 -3 10 2 9 20 -3 25 2 13 16 -7 8 -10 15 -6 15 4 0 -1
11 -10 25 -11 17 -12 25 -5 25 7 0 9 5 6 10 -4 6 -15 8 -26 5 -14 -5 -19 -2
-19 13 0 22 -39 43 -69 37 -13 -2 -21 1 -21 10 0 10 6 12 18 8 16 -6 16 -6 -1
11 -14 14 -20 16 -32 6 -8 -7 -12 -17 -8 -24 4 -6 0 -5 -9 2 -10 8 -19 9 -22
3 -4 -5 2 -14 11 -20 10 -6 13 -11 7 -11 -6 0 -17 7 -24 15 -7 8 -16 12 -21 9
-5 -3 -6 2 -3 10 3 9 10 13 15 10 5 -3 9 -1 9 4 0 5 -9 12 -21 15 -14 4 -22 0
-27 -13 -6 -17 -9 -17 -32 -4 -24 15 -24 15 -2 10 19 -4 21 -2 12 9 -10 11 -8
13 9 10 12 -2 21 0 21 5 0 4 13 3 29 -3 17 -6 28 -15 25 -19 -3 -4 2 -8 11 -8
9 0 14 4 11 9 -4 5 0 12 6 14 8 4 7 6 -4 6 -9 1 -25 13 -35 27 -17 23 -23 25
-41 15 -15 -8 -23 -8 -28 1 -4 6 -3 8 3 5 6 -4 13 0 16 8 4 10 1 12 -11 8 -14
-6 -15 -4 -5 9 11 13 9 15 -17 13 -22 -1 -27 1 -20 10 7 9 5 16 -6 26 -13 11
-17 10 -25 -2 -7 -11 -9 -9 -9 9 0 12 -4 22 -9 22 -6 0 -6 -13 1 -32 10 -27
12 -29 23 -15 7 9 14 14 17 11 3 -3 -5 -16 -17 -29 -16 -16 -22 -30 -18 -45 5
-19 3 -21 -17 -15 -15 5 -25 2 -31 -6 -7 -11 -9 -11 -9 -1 0 7 8 16 18 19 24
9 33 26 19 35 -8 5 -6 8 6 8 15 0 16 2 5 13 -7 7 -22 19 -33 26 -19 12 -19 12
3 7 18 -3 22 -1 18 11 -3 8 -6 22 -7 31 0 11 -2 12 -6 5 -2 -7 -11 -13 -18
-13 -7 0 -16 -8 -18 -17 -4 -17 -5 -17 -6 0 0 10 6 20 14 23 8 4 12 10 9 15
-3 5 -16 2 -29 -7 -13 -9 -28 -13 -34 -10 -5 3 -11 -1 -15 -9 -3 -8 -2 -15 3
-15 4 0 8 -7 8 -15 0 -20 -13 -19 -21 1 -4 9 -13 14 -21 10 -8 -3 -15 -1 -15
4 0 6 7 10 17 10 9 0 13 3 10 7 -12 12 15 34 28 23 13 -11 45 -4 45 10 0 4 -7
13 -15 20 -8 7 -12 17 -8 24 4 6 -1 5 -10 -3 -15 -12 -17 -11 -18 10 0 16 -3
19 -6 9 -10 -23 -31 -41 -37 -31 -4 5 -1 11 6 13 15 5 3 38 -14 38 -9 0 -9 -3
2 -11 13 -9 13 -10 0 -6 -9 2 -15 15 -14 31 1 25 -1 26 -35 21 -20 -3 -30 -2
-23 1 6 3 12 10 12 15 0 11 -22 8 -31 -5 -4 -5 -13 -5 -20 -1 -9 6 -6 11 10
17 20 7 21 10 7 23 -19 19 -26 19 -26 0 0 -8 -5 -15 -11 -15 -5 0 -7 -5 -3
-12 4 -7 3 -8 -5 -4 -6 4 -8 13 -4 19 10 16 11 47 2 41 -4 -2 -12 4 -18 13 -6
10 -11 12 -11 5 0 -6 -3 -11 -7 -11 -5 1 -10 0 -13 -1 -24 -9 -40 -6 -40 7 0
13 -3 13 -15 3 -8 -7 -15 -9 -15 -5 0 4 -7 2 -15 -5 -10 -9 -15 -9 -15 -1 0 6
5 11 11 11 5 0 8 4 4 9 -3 6 4 8 16 6 15 -3 19 0 15 10 -3 9 0 12 9 8 8 -3 13
-9 10 -13 -3 -4 2 -13 10 -20 12 -10 13 -7 5 18 -4 17 -7 32 -5 34 7 7 -61 1
-76 -6 -8 -4 -5 0 6 8 11 9 26 14 34 11 12 -5 12 -3 0 11 -8 10 -15 12 -17 5
-5 -14 -42 4 -42 21 0 6 7 5 18 -3 16 -13 16 -12 3 4 -14 18 -16 18 -28 1 -17
-23 -17 -37 0 -28 8 5 8 2 -2 -9 -7 -9 -9 -17 -3 -17 5 0 12 -6 15 -14 4 -9
-2 -12 -20 -10 -23 2 -24 1 -9 -15 9 -10 13 -21 9 -26 -5 -4 0 -5 10 -2 11 4
16 3 12 -4 -9 -14 -30 -6 -30 12 -1 8 -6 13 -13 11 -15 -3 -15 8 -2 42 6 17 6
35 -1 52 -8 24 -8 25 6 14 10 -8 15 -9 15 -1 0 6 -11 13 -25 17 -18 4 -25 13
-25 30 0 17 -4 22 -15 18 -8 -4 -15 -2 -15 2 0 5 -4 15 -9 23 -8 12 -12 12
-25 2 -12 -10 -16 -11 -16 -1 0 7 -6 10 -14 7 -8 -3 -20 1 -26 8 -13 15 -30
11 -30 -6 0 -6 4 -8 9 -4 5 3 12 1 15 -4 3 -5 0 -11 -8 -14 -8 -3 -18 5 -26
21 -6 15 -8 24 -4 20 4 -4 14 -3 21 4 11 9 17 9 24 -3 5 -8 9 -10 9 -6 0 4 9
3 21 -4 15 -8 24 -8 32 0 11 11 -2 16 -27 12 -4 -1 -19 11 -32 26 -13 15 -34
28 -46 28 -16 0 -24 7 -26 22 -3 19 -7 21 -22 13 -16 -8 -18 -7 -14 4 3 9 -3
17 -18 21 -13 4 -26 12 -29 18 -8 12 -31 -1 -24 -14 4 -5 1 -9 -4 -9 -15 0
-14 23 2 39 10 10 8 12 -8 9 -11 -2 -19 -10 -18 -19 2 -9 -5 -15 -17 -16 -11
-1 -20 3 -20 9 0 6 3 8 7 5 3 -4 15 5 25 20 17 27 17 28 -8 50 -14 12 -23 26
-21 30 3 5 -3 15 -14 21 -18 12 -19 11 -10 -7 16 -30 13 -38 -5 -13 -16 24
-37 21 -28 -3 4 -8 10 -13 14 -10 5 3 10 0 12 -5 2 -6 12 -13 23 -14 11 -2 19
-9 18 -14 -2 -7 5 -9 15 -6 13 5 14 4 3 -4 -8 -6 -20 -8 -26 -5 -11 4 -13 -18
-6 -70 1 -5 7 -5 14 -2 6 4 5 1 -4 -7 -9 -7 -15 -19 -13 -26 1 -7 0 -8 -3 -2
-2 5 -11 10 -19 10 -17 0 -18 16 -1 27 20 13 15 79 -7 93 -16 10 -18 9 -13 -4
4 -10 1 -13 -9 -9 -10 4 -12 9 -5 16 6 6 6 16 -2 29 -10 15 -9 20 2 27 15 10
25 61 12 61 -4 0 -8 7 -8 15 0 15 10 19 35 16 7 -1 15 5 18 13 3 9 10 13 15
10 5 -3 9 5 9 17 0 18 3 20 12 11 7 -7 17 -12 22 -12 6 0 5 5 -2 12 -7 7 -12
19 -12 28 0 13 1 13 10 0 8 -12 10 -11 10 7 0 18 -5 21 -25 17 -15 -3 -25 0
-25 8 0 9 -3 9 -12 0 -9 -9 -8 -15 7 -25 13 -10 15 -16 6 -21 -6 -4 -9 -10 -7
-14 2 -4 -2 -13 -10 -20 -10 -9 -14 -9 -14 -1 0 9 -3 9 -14 0 -8 -6 -20 -10
-27 -9 -10 2 -13 -6 -12 -29 2 -17 0 -34 -5 -36 -4 -3 -8 7 -9 21 -2 15 -5 36
-7 47 -3 11 -5 22 -5 24 -1 2 -8 -2 -16 -9 -9 -7 -12 -16 -7 -19 6 -3 4 -11
-4 -18 -8 -8 -15 -9 -19 -3 -3 6 -1 10 5 10 6 0 9 4 6 8 -6 11 22 52 35 52 6
0 8 -3 6 -7 -3 -5 1 -14 9 -20 10 -10 15 -10 22 3 5 9 13 17 18 17 5 1 8 9 7
17 -2 10 0 10 3 3 3 -7 15 -13 27 -13 20 0 19 2 -7 15 -15 8 -32 13 -36 10 -5
-3 -6 4 -3 16 4 14 9 17 16 10 15 -15 30 -14 21 1 -4 7 -3 8 4 4 7 -4 12 0 13
11 0 10 3 13 5 6 3 -7 12 -9 20 -6 7 3 12 8 9 12 -2 4 6 6 18 5 12 -1 28 -3
36 -3 8 -1 11 -4 8 -8 -6 -6 -27 -10 -64 -12 -7 -1 -13 -4 -13 -8 0 -5 22 -8
50 -7 30 0 50 -4 50 -10 0 -6 5 -4 10 4 5 8 10 11 10 6 0 -11 29 25 30 37 0
11 -38 8 -43 -3 -3 -6 -4 -5 -3 2 2 8 18 13 39 13 19 1 44 8 55 18 10 9 22 14
25 10 4 -3 7 -2 7 4 0 5 -12 15 -26 21 -14 7 -22 17 -19 22 3 6 1 10 -4 10 -6
0 -11 6 -11 13 1 6 11 -1 24 -16 19 -24 27 -27 52 -21 38 10 59 30 39 38 -8 3
-15 11 -15 17 0 8 4 8 15 -1 12 -10 15 -10 15 1 0 9 3 10 8 4 4 -5 14 -11 22
-13 11 -3 10 2 -4 17 -10 11 -23 18 -27 15 -5 -3 -19 -2 -31 2 -20 6 -20 7 -3
16 12 8 20 7 26 -3 7 -11 9 -11 9 -1 0 8 8 5 22 -8 20 -18 38 -26 38 -16 0 2
3 12 7 22 5 14 2 16 -20 12 -31 -6 -37 8 -7 17 11 3 20 11 20 17 0 5 -7 8 -15
4 -8 -3 -15 -1 -15 4 0 6 4 10 8 10 5 0 7 17 6 38 -3 32 -1 35 10 19 7 -9 11
-29 9 -45 -3 -20 -2 -23 5 -13 8 12 15 12 34 3 l23 -11 -25 2 c-15 1 -24 -3
-23 -10 2 -7 -2 -13 -8 -13 -8 0 -7 -5 2 -16 12 -15 15 -14 31 6 10 12 18 19
18 15 0 -4 7 -2 15 5 8 7 15 10 15 7 0 -3 11 5 25 18 13 14 31 25 40 25 14 0
14 2 3 13 -8 6 -24 18 -37 25 -20 12 -23 12 -18 0 3 -8 -1 -15 -9 -15 -7 0
-15 6 -18 14 -3 7 2 13 11 13 14 0 14 2 -3 16 -10 8 -12 12 -4 8 8 -4 23 -14
32 -22 11 -9 26 -12 44 -8 24 6 26 5 15 -8 -10 -12 -9 -14 5 -12 10 2 18 10
20 19 1 10 -2 15 -6 12 -5 -3 -11 -1 -15 4 -3 6 -13 8 -23 5 -13 -5 -14 -4 -3
4 7 5 28 6 47 2 33 -8 55 2 34 15 -5 3 -10 18 -10 32 0 16 -5 23 -12 20 -9 -3
-13 10 -14 45 0 45 1 47 12 26 7 -13 11 -31 8 -40 -3 -10 -1 -18 5 -18 6 0 11
-14 11 -31 0 -18 4 -28 10 -24 6 4 8 10 5 15 -3 5 -1 11 5 15 5 3 10 -1 10
-10 0 -9 5 -13 11 -10 6 4 8 13 5 21 -4 10 4 14 29 14 19 0 38 6 42 13 4 8 27
24 49 36 33 19 40 28 36 45 -3 11 -1 18 3 14 5 -5 14 1 22 12 15 22 33 27 33
9 0 -5 -5 -7 -12 -3 -7 4 -8 3 -4 -5 4 -6 12 -9 17 -6 12 8 11 33 -2 37 -5 2
-7 11 -4 20 4 9 12 15 19 12 7 -3 12 5 12 21 0 14 -4 25 -8 25 -19 0 -6 30 16
36 18 4 22 11 20 31 -2 22 2 30 6 11 1 -4 5 -22 10 -39 7 -25 7 -29 -4 -20
-10 8 -16 5 -24 -14 -10 -21 -9 -25 3 -25 8 0 15 -8 15 -17 0 -16 -2 -16 -11
-3 -9 13 -10 13 -6 0 5 -21 43 -25 50 -6 4 10 1 16 -7 16 -8 0 -16 7 -20 15
-4 11 1 15 17 15 18 0 19 -2 7 -10 -13 -8 -12 -10 3 -10 9 0 17 5 17 10 0 6 5
10 11 10 5 0 7 -6 3 -12 -5 -9 -3 -9 9 1 9 7 14 18 10 24 -3 5 -1 7 5 3 6 -3
17 3 25 14 7 11 17 18 20 15 4 -3 3 1 -3 7 -5 7 -10 17 -10 23 0 5 4 4 8 -3 9
-13 42 -6 42 9 0 4 8 6 18 3 12 -4 11 -2 -4 8 -12 8 -20 23 -20 38 0 14 -4 32
-9 40 -7 13 -6 13 7 2 9 -7 14 -21 11 -32 -3 -12 0 -20 6 -20 7 0 9 -4 6 -10
-3 -5 3 -10 14 -10 12 0 21 5 21 10 0 6 3 9 8 8 10 -2 72 36 72 45 0 5 -4 5
-10 2 -5 -3 -15 3 -22 15 -15 24 -28 26 -28 5 0 -8 8 -15 17 -15 23 0 7 -13
-20 -16 -12 -2 -17 0 -10 2 7 3 9 12 6 20 -3 7 -9 11 -14 8 -5 -3 -6 2 -3 10
4 10 0 14 -13 12 -10 -2 -12 -1 -5 1 6 3 12 9 12 14 0 6 5 7 10 4 6 -3 10 0
10 7 0 8 4 6 11 -4 9 -16 12 -16 33 -3 12 8 26 12 30 8 4 -4 4 -1 1 8 -3 8 1
23 8 33 13 17 14 16 9 -13 -3 -25 -11 -35 -34 -43 -27 -10 -28 -12 -14 -27 14
-13 18 -14 25 -3 5 8 12 14 17 15 5 1 8 7 6 12 -2 6 0 7 4 3 12 -12 33 12 27
29 -6 14 -8 14 -14 -3 -6 -16 -8 -16 -8 -2 -1 21 21 36 27 19 4 -11 6 -11 14
0 7 10 8 8 4 -7 -4 -14 -2 -21 8 -21 9 0 13 4 10 8 -2 4 2 10 8 12 10 4 9 8
-2 17 -13 10 -12 11 3 6 11 -3 17 -1 16 7 -1 6 -1 23 1 37 1 23 2 23 9 5 5
-12 4 -23 -3 -27 -6 -4 -9 -8 -6 -9 3 0 13 -2 24 -4 11 -2 20 3 23 16 3 10 10
19 15 19 5 0 6 5 3 11 -4 6 0 9 8 7 9 -2 16 1 16 7 1 5 -5 10 -12 11 -6 0 -16
2 -22 4 -25 6 -51 4 -57 -5 -5 -6 -14 -3 -25 8 -17 17 -16 18 32 13 53 -5 70
-9 97 -20 9 -4 31 -6 50 -4 25 2 33 8 34 23 3 33 4 35 13 35 5 0 8 -11 5 -24z"/>
<path d="M1 6293 c-1 -329 2 -453 10 -453 8 0 8 -4 1 -12 -5 -7 -10 -48 -10
-90 1 -70 3 -79 27 -100 14 -13 21 -16 16 -8 -6 9 0 4 13 -10 12 -14 27 -24
33 -22 5 1 12 -4 15 -12 8 -22 33 -8 27 15 -6 21 11 26 23 7 5 -7 3 -8 -6 -3
-9 5 -10 2 -6 -12 5 -14 0 -23 -16 -31 -22 -11 -22 -12 -2 -7 13 3 28 -1 37
-10 17 -17 31 -20 22 -5 -3 6 -1 10 4 10 6 0 11 -8 11 -17 0 -15 2 -15 9 -4 5
8 6 21 3 30 -5 13 -2 13 12 -2 10 -10 21 -15 24 -12 3 3 0 11 -6 17 -16 16
-15 25 4 32 8 3 12 2 9 -4 -9 -14 4 -52 15 -45 5 3 11 1 15 -5 3 -5 15 -10 26
-10 10 0 19 -4 19 -10 0 -5 -4 -10 -10 -10 -8 0 -8 -10 -1 -49 1 -2 9 3 19 10
15 12 16 12 5 -2 -10 -12 -10 -18 0 -28 9 -10 8 -11 -5 -6 -11 4 -18 2 -18 -4
0 -6 10 -12 23 -12 17 -1 16 -3 -8 -8 -34 -8 -45 -5 -45 12 0 7 4 6 10 -3 6
-9 10 -10 10 -3 0 6 3 19 7 29 4 11 3 15 -4 11 -7 -5 -10 5 -9 28 1 23 -4 37
-14 41 -24 11 -71 13 -65 4 3 -5 -4 -11 -15 -15 -19 -6 -19 -7 6 -32 14 -14
23 -31 20 -39 -3 -8 -2 -13 2 -13 23 4 42 -3 43 -13 0 -7 15 -25 32 -39 26
-22 34 -24 44 -13 8 8 9 15 3 19 -6 3 -10 1 -10 -5 0 -6 -5 -8 -10 -5 -14 9
-1 28 14 22 7 -3 21 10 31 29 12 23 21 31 26 22 5 -7 -3 -22 -19 -36 -24 -22
-24 -26 -9 -37 21 -15 22 -25 1 -25 -9 0 -12 5 -8 13 4 6 3 8 -1 4 -12 -11
-15 -37 -5 -37 5 0 19 -10 31 -22 12 -13 18 -17 14 -9 -5 9 -4 12 3 7 6 -3 15
2 21 11 6 10 11 14 11 10 0 -4 -8 -20 -17 -35 -16 -24 -16 -25 -1 -14 12 10
18 10 24 1 4 -8 3 -9 -4 -5 -7 4 -12 1 -12 -8 0 -9 6 -13 15 -10 16 6 40 -14
40 -33 0 -7 4 -13 9 -12 5 0 13 -6 18 -15 11 -19 29 -21 25 -3 -1 6 -10 15
-20 19 -17 7 -17 10 -3 23 8 8 21 15 28 16 7 0 4 4 -6 8 -19 7 -19 8 0 13 25
6 29 -21 5 -39 -12 -9 -13 -12 -2 -13 7 0 11 -6 7 -15 -4 -12 3 -15 29 -15 19
0 35 -5 35 -11 0 -5 -4 -7 -10 -4 -5 3 -10 0 -10 -7 0 -9 -3 -9 -10 2 -9 13
-10 13 -10 0 0 -13 -1 -13 -10 0 -8 13 -11 13 -22 1 -8 -9 -9 -12 -1 -7 6 3
16 -2 22 -11 6 -10 11 -15 11 -10 0 4 10 -3 22 -15 13 -13 22 -27 20 -31 -1
-5 2 -6 7 -3 5 3 20 -3 34 -14 14 -11 29 -20 34 -20 4 0 1 5 -7 10 -13 9 -13
10 0 10 13 0 13 1 0 10 -11 7 -9 9 10 8 14 -1 30 -6 37 -11 7 -5 16 -6 21 -3
8 5 10 -1 14 -44 3 -24 14 -26 22 -4 3 8 11 12 16 9 8 -5 8 -11 1 -19 -7 -9
-7 -16 2 -25 10 -11 7 -11 -13 -1 -14 8 -27 13 -30 12 -3 -1 -5 6 -6 16 -2 36
-4 42 -15 42 -5 0 -7 -4 -4 -10 3 -5 2 -10 -4 -10 -5 0 -13 5 -16 10 -3 6 -1
10 5 10 6 0 9 4 5 10 -3 5 -12 7 -20 4 -13 -5 -13 -10 1 -35 8 -16 17 -29 20
-29 3 0 2 5 -1 10 -3 6 -1 10 4 10 6 0 11 -7 11 -15 0 -22 -31 -18 -37 5 -6
23 -20 27 -20 5 0 -8 4 -15 8 -15 5 0 6 -6 3 -14 -6 -17 30 -28 45 -13 7 7 12
5 17 -6 3 -9 10 -15 14 -12 7 4 7 -11 0 -35 -1 -3 -6 6 -11 19 -8 19 -12 22
-22 12 -9 -9 -9 -14 3 -21 8 -5 11 -10 5 -10 -5 0 -2 -5 8 -11 9 -5 17 -15 17
-20 0 -6 -5 -7 -11 -4 -6 4 -9 0 -7 -11 2 -12 -2 -18 -11 -16 -11 2 -12 0 -3
-11 7 -8 10 -16 7 -19 -3 -3 2 -11 11 -19 16 -13 17 -11 11 13 -8 31 0 58 16
54 7 -1 9 -1 5 1 -19 11 -6 23 12 13 19 -10 28 -31 13 -29 -27 4 -44 -3 -41
-17 2 -8 6 -14 9 -12 11 5 39 -24 39 -41 -1 -14 -2 -14 -11 1 -9 17 -12 17
-39 3 -25 -13 -29 -13 -24 -1 7 17 -14 32 -27 19 -6 -6 -1 -18 11 -31 17 -18
18 -22 5 -22 -8 0 -15 7 -15 15 0 8 -5 15 -11 15 -6 0 -9 -6 -6 -14 3 -8 -2
-16 -14 -19 -10 -3 -19 0 -19 6 0 17 -10 1 -15 -24 -3 -13 -9 -25 -15 -27 -16
-6 -12 -42 5 -42 18 0 20 -16 3 -26 -7 -4 -8 -3 -4 4 4 7 1 12 -9 12 -10 0
-14 -5 -10 -12 4 -7 1 -6 -7 2 -7 9 -18 15 -25 15 -15 0 -30 -15 -14 -15 7 0
9 -5 6 -10 -4 -6 -10 -8 -14 -5 -5 2 -6 -6 -4 -19 4 -17 0 -23 -14 -23 -10 0
-21 5 -25 10 -3 6 -5 -5 -3 -24 3 -34 2 -35 -26 -31 -16 2 -26 8 -23 13 3 5 1
9 -5 9 -20 0 -21 -19 -1 -25 11 -3 20 -13 20 -21 0 -9 5 -12 12 -8 7 5 9 2 4
-7 -4 -8 9 4 29 26 21 22 41 50 46 63 5 12 12 22 16 21 5 -1 10 0 13 1 3 1 15
3 27 4 15 2 20 -2 15 -13 -8 -24 -23 -41 -35 -41 -6 0 -2 7 9 15 10 8 15 15 9
15 -5 1 -18 3 -28 5 -14 3 -16 -1 -11 -17 4 -14 2 -18 -5 -14 -11 7 -15 -6
-12 -33 2 -7 -2 -10 -8 -6 -6 3 -11 1 -11 -5 0 -6 -4 -8 -10 -5 -8 5 -15 -21
-12 -46 1 -4 -8 -5 -18 -2 -11 3 -20 0 -20 -6 0 -6 5 -12 10 -12 6 -1 16 -2
23 -3 6 0 13 -12 14 -26 l2 -25 -7 25 c-7 22 -9 23 -15 6 -11 -28 -37 -1 -37
38 0 17 -4 37 -9 45 -12 19 -41 23 -41 5 0 -8 -9 -14 -20 -14 -11 0 -20 -6
-20 -14 0 -13 -27 -31 -43 -28 -11 3 -8 -13 4 -25 9 -9 6 -10 -10 -6 -18 4
-24 0 -34 -26 -11 -31 -27 -42 -27 -20 0 7 -12 -1 -27 -17 -15 -16 -31 -28
-37 -26 -5 2 -4 -3 2 -11 7 -8 9 -17 5 -20 -3 -4 -1 -7 6 -7 7 0 11 7 8 15
-10 24 9 26 22 2 20 -38 -9 -108 -31 -74 -11 18 -10 39 2 32 6 -4 8 -11 5 -16
-4 -5 -2 -9 4 -9 23 0 19 20 -8 39 -32 23 -46 27 -35 9 4 -6 3 -8 -3 -5 -6 4
-16 0 -23 -9 -12 -13 -10 -14 14 -10 22 4 25 2 17 -8 -7 -9 -7 -16 1 -24 8 -8
5 -9 -10 -5 -12 3 -19 9 -16 14 3 5 -4 9 -15 9 -12 0 -21 -4 -21 -10 0 -18 39
-50 55 -44 9 4 15 0 15 -10 0 -10 -5 -13 -16 -9 -11 4 -24 -3 -36 -18 l-20
-24 16 27 16 27 -39 -3 c-34 -3 -39 0 -36 16 2 10 0 16 -6 13 -5 -4 -7 -10 -4
-15 3 -5 -3 -13 -12 -19 -10 -6 -14 -11 -10 -11 4 0 2 -6 -5 -14 -7 -7 -19
-11 -27 -8 -9 3 -12 1 -7 -6 4 -7 1 -12 -8 -12 -9 0 -16 -9 -16 -21 0 -13 -4
-18 -12 -13 -10 6 -10 4 0 -8 9 -11 9 -18 3 -23 -6 -3 -10 -17 -9 -30 1 -13 6
-22 10 -19 4 2 5 14 3 25 -3 17 -2 19 10 9 11 -9 12 -17 4 -31 -5 -10 -14 -19
-19 -19 -6 0 -10 -16 -10 -35 0 -21 5 -35 12 -35 9 0 9 -3 0 -12 -9 -9 -12
-75 -12 -237 l1 -226 19 54 c20 56 50 105 92 152 13 15 320 298 683 630 363
331 704 643 758 692 53 49 97 92 97 96 0 4 -312 293 -692 642 -944 864 -886
806 -935 929 l-22 55 0 -452z"/>
<path d="M2098 3197 c-561 -428 -916 -692 -949 -707 -80 -35 -203 -39 -288
-10 -60 20 -131 62 -171 99 -33 32 -120 111 -335 308 -121 110 -234 216 -252
234 -34 37 -82 125 -94 174 -4 16 -7 -161 -8 -395 -1 -328 2 -429 12 -439 9
-11 9 -12 0 -7 -9 5 -12 -3 -11 -29 1 -19 5 -35 10 -35 5 0 6 5 3 10 -3 6 -1
10 4 10 15 0 14 -27 0 -32 -14 -5 -21 -58 -8 -58 5 0 9 -7 9 -16 0 -13 3 -14
14 -5 10 8 16 9 21 1 3 -5 -1 -10 -9 -10 -9 0 -13 -7 -11 -19 2 -13 -1 -18
-10 -15 -7 3 -16 0 -20 -6 -8 -13 23 -40 45 -39 11 1 10 3 -2 6 -16 4 -16 6
-3 20 8 8 13 18 10 23 -3 5 -1 11 4 14 5 4 7 -7 4 -25 -3 -24 -1 -29 9 -23 7
4 4 -3 -7 -16 -11 -13 -14 -20 -7 -16 7 4 12 2 12 -7 0 -13 51 -57 67 -57 4 0
-2 6 -12 14 -17 12 -16 13 11 11 47 -3 49 -4 30 -18 -13 -10 -16 -20 -11 -37
5 -16 9 -19 15 -10 5 7 6 19 3 27 -3 7 1 13 10 13 8 0 17 6 20 13 2 7 8 8 13
3 5 -5 4 -11 -4 -13 -10 -4 -9 -9 4 -24 9 -10 21 -16 27 -12 5 3 7 1 3 -5 -3
-6 -2 -13 4 -17 6 -4 10 5 10 19 0 17 -6 26 -16 26 -8 0 -12 5 -9 10 5 8 12 7
23 -2 12 -10 16 -10 19 -1 3 9 10 10 22 3 22 -11 65 15 54 33 -4 7 0 6 10 -2
20 -16 22 -22 5 -19 -6 2 -14 -5 -16 -15 -3 -16 0 -18 20 -12 18 5 20 4 8 -4
-8 -6 -23 -11 -33 -11 -10 0 -15 -5 -12 -10 3 -5 1 -10 -4 -10 -6 0 -11 6 -11
14 0 8 -8 17 -17 20 -26 11 -46 -35 -21 -50 8 -5 9 0 6 14 -4 12 -2 22 3 22 5
0 9 -9 9 -19 0 -13 5 -18 17 -15 10 3 26 -1 36 -8 16 -12 16 -15 2 -33 -9 -11
-14 -15 -10 -8 4 8 -2 11 -16 8 -13 -3 -29 1 -38 8 -12 10 -14 9 -8 -5 3 -10
3 -18 -2 -18 -5 0 -11 9 -14 20 -3 11 -1 20 5 20 5 0 7 4 3 9 -5 9 -42 7 -52
-3 -8 -7 7 -27 16 -21 5 2 13 -7 20 -21 6 -14 16 -22 21 -19 6 3 13 -1 16 -9
3 -9 12 -16 20 -16 8 0 14 -5 14 -11 0 -5 4 -8 9 -4 5 3 12 1 16 -5 4 -7 12
-7 25 0 13 7 21 7 25 0 3 -5 -1 -10 -9 -10 -9 0 -16 -4 -16 -10 0 -5 7 -10 16
-10 10 0 14 -5 10 -16 -3 -8 -2 -12 4 -9 6 3 13 -1 16 -9 10 -27 52 12 46 43
-3 14 -1 22 5 18 14 -8 8 -53 -9 -75 -12 -16 -11 -16 6 -2 18 14 19 13 13 -4
-6 -15 -5 -16 6 -8 18 16 97 3 104 -17 8 -21 34 -51 45 -51 5 0 6 5 2 11 -5 8
-1 8 14 0 22 -12 39 0 27 19 -4 6 -3 10 2 9 4 -1 10 -1 13 1 3 1 16 3 30 6 23
3 24 3 7 -10 -13 -10 -17 -21 -12 -35 3 -12 10 -19 15 -16 5 3 6 13 3 23 -5
16 -5 16 8 0 8 -10 24 -19 36 -21 12 -2 26 -6 29 -10 11 -10 36 -8 30 2 -4 5
3 7 14 4 11 -3 18 -9 15 -13 -3 -5 5 -6 17 -2 16 4 18 7 7 11 -7 3 -15 13 -17
21 -3 12 -1 13 9 3 15 -15 33 -17 24 -3 -3 5 0 7 9 4 8 -3 14 -11 12 -17 -1
-7 -1 -8 2 -4 2 4 11 2 19 -4 12 -10 16 -10 23 1 7 11 14 11 32 3 25 -11 48
-7 48 9 0 6 -7 8 -15 4 -8 -3 -15 -2 -15 3 0 5 11 11 24 13 17 4 23 1 19 -9
-4 -9 0 -11 11 -7 9 3 13 11 9 18 -4 6 1 5 10 -3 14 -11 15 -17 5 -30 -7 -9
-8 -13 -4 -9 5 4 15 3 22 -3 11 -9 15 -7 20 5 4 10 13 15 20 12 19 -7 18 8 -2
24 -13 11 -16 10 -21 -8 -3 -12 -9 -22 -13 -22 -9 0 -8 20 3 37 4 6 3 14 -3
18 -5 3 -10 12 -10 18 0 7 5 4 11 -5 12 -21 45 -24 52 -5 3 6 5 3 6 -8 2 -44
5 -54 15 -48 6 4 28 6 49 4 27 -2 37 1 32 8 -3 6 -11 9 -16 6 -5 -3 -6 1 -3
10 5 11 1 14 -12 12 -11 -1 -24 -6 -30 -10 -18 -10 -25 4 -9 19 9 9 24 12 44
8 26 -6 30 -4 25 10 -3 9 -10 16 -16 16 -5 0 -6 -5 -2 -12 4 -6 3 -8 -3 -5 -6
4 -13 16 -16 27 -5 18 -3 18 15 6 23 -16 59 -10 52 9 -3 7 -13 11 -23 8 -11
-3 -18 1 -18 11 0 11 4 13 12 6 7 -5 14 -8 17 -5 3 3 11 -2 19 -11 11 -14 11
-18 -2 -28 -8 -6 -13 -19 -11 -28 2 -11 -3 -18 -12 -18 -9 0 -16 -4 -16 -9 0
-14 30 -7 41 10 7 12 9 12 10 -1 1 -8 1 -18 1 -21 -1 -3 6 -6 14 -6 8 0 13 6
10 13 -3 8 2 11 14 9 11 -2 22 0 25 6 4 5 15 9 25 9 18 0 21 14 7 38 -5 7 -13
10 -18 6 -5 -3 -7 -9 -4 -14 3 -5 0 -12 -6 -16 -8 -4 -9 -3 -5 4 4 7 3 12 -3
12 -5 0 -12 -6 -14 -12 -3 -8 -6 -6 -6 5 -1 9 4 17 10 17 6 0 9 7 5 15 -3 8
-1 15 4 15 6 0 10 -4 10 -9 0 -5 8 -8 17 -7 18 3 39 66 22 66 -5 0 -9 -4 -9
-8 0 -13 -32 -11 -52 3 -14 9 -9 11 30 10 43 -1 47 -3 44 -24 -2 -13 0 -21 5
-18 5 3 9 -3 9 -14 0 -12 -5 -18 -13 -15 -7 3 -15 1 -19 -5 -3 -6 3 -13 15
-16 11 -3 18 -10 15 -15 -4 -6 3 -5 15 1 11 7 21 16 21 21 0 5 6 7 13 4 8 -3
20 2 27 10 7 9 16 13 21 10 5 -3 8 0 7 7 -2 7 6 15 17 17 11 2 28 11 39 21 10
9 20 15 22 13 3 -1 12 2 22 7 15 9 15 10 -4 11 -12 0 -34 -10 -50 -22 -21 -17
-26 -19 -22 -6 4 10 0 22 -9 30 -14 11 -16 11 -10 -4 5 -15 4 -16 -13 -5 -26
16 -27 40 -1 32 11 -3 22 -1 26 5 3 6 10 8 15 5 5 -3 11 -1 15 5 4 6 11 8 16
5 5 -4 8 4 6 16 -1 12 5 24 13 27 13 5 13 3 0 -13 -13 -17 -13 -18 1 -13 9 4
20 -2 27 -12 10 -16 9 -18 -8 -15 -28 5 -58 -5 -65 -22 -3 -9 -4 -18 -2 -20 7
-6 37 9 33 16 -5 8 56 7 70 -1 5 -3 15 0 22 8 12 13 8 17 -18 16 -3 0 -11 6
-17 13 -10 11 -9 17 9 29 19 14 20 16 5 22 -9 3 -17 10 -17 15 0 16 29 -3 35
-22 5 -15 12 -18 27 -13 14 4 18 3 13 -6 -4 -7 -18 -9 -36 -5 -33 8 -40 -10
-7 -18 13 -4 31 1 46 14 14 10 19 19 13 19 -7 0 -9 5 -6 10 3 6 13 10 22 10
16 0 59 30 60 43 2 16 13 21 13 6 1 -8 8 -2 16 14 8 15 17 27 20 27 3 0 3 -4
0 -9 -7 -10 19 -23 28 -14 3 4 -2 15 -11 25 -16 18 -16 19 9 9 30 -11 43 -4
26 16 -6 7 -8 16 -4 20 3 3 6 1 6 -5 0 -9 6 -9 25 0 14 6 25 17 25 24 0 7 5
16 12 20 8 5 9 2 5 -10 -4 -11 -3 -16 4 -14 6 2 10 7 9 12 -1 5 3 12 8 15 6 3
12 21 15 39 5 31 4 33 -16 28 -19 -4 -20 -4 -5 7 12 9 14 17 7 30 -8 13 -6 17
5 17 8 0 17 6 20 13 5 9 7 9 12 -1 3 -6 10 -10 15 -6 5 3 6 11 2 17 -21 34 -3
87 29 87 11 0 11 -2 0 -9 -10 -6 -9 -10 7 -14 12 -3 21 -11 21 -19 0 -11 -2
-10 -9 1 -5 7 -14 10 -20 7 -6 -4 -11 -2 -11 4 0 6 -5 8 -10 5 -8 -5 -7 -11 1
-21 6 -7 14 -12 18 -10 4 3 13 1 21 -5 11 -6 12 -9 2 -9 -7 0 -10 -5 -7 -10 5
-8 11 -7 21 1 10 8 14 8 14 0 0 -6 -4 -11 -10 -11 -5 0 -7 -8 -4 -17 5 -17 4
-17 -9 0 -11 13 -17 15 -22 7 -4 -7 3 -22 15 -34 13 -11 20 -16 16 -9 -8 14 4
22 37 25 14 1 25 5 25 8 -2 18 4 23 12 10 9 -13 10 -13 10 0 0 17 -19 40 -33
40 -4 0 -5 -4 -2 -10 3 -5 0 -7 -7 -5 -15 6 -42 45 -32 45 4 0 12 -7 18 -16
10 -13 12 -13 12 5 0 12 -5 21 -11 21 -5 0 -4 4 3 9 17 10 17 21 2 31 -8 5 -6
11 5 20 10 8 15 9 15 1 0 -6 5 -11 11 -11 5 0 8 4 5 9 -4 5 7 7 25 4 27 -4 30
-2 27 19 -2 17 1 22 15 20 9 -2 17 3 17 9 0 7 3 9 6 6 4 -4 2 -13 -4 -20 -9
-11 -7 -13 8 -12 11 1 23 4 26 8 4 4 12 3 18 -2 6 -4 22 -11 36 -14 22 -5 23
-5 8 7 -10 7 -15 16 -12 19 12 11 -7 46 -22 40 -11 -4 -12 -9 -3 -19 8 -10 6
-13 -10 -11 -11 1 -23 7 -26 15 -2 7 -1 10 4 7 6 -3 14 3 20 12 6 10 11 14 11
9 0 -5 7 -3 15 4 10 9 15 9 15 1 0 -20 3 -26 19 -38 9 -6 20 -9 25 -6 5 4 6 1
2 -5 -4 -7 -2 -12 3 -12 6 0 11 6 11 13 0 8 4 7 10 -3 8 -13 10 -12 11 5 1 11
1 26 0 33 -1 8 3 20 10 28 9 11 9 14 -1 14 -10 0 -10 3 0 15 15 18 1 19 -22 1
-14 -10 -15 -15 -5 -26 10 -10 8 -12 -10 -7 -12 2 -24 0 -25 -5 -2 -6 -10 -2
-18 8 -13 16 -13 17 2 11 9 -3 22 1 30 10 10 13 10 17 1 20 -7 3 -13 9 -13 15
0 6 6 6 15 -2 12 -10 15 -10 15 1 0 9 3 10 8 4 4 -5 16 -10 27 -10 14 0 20 6
19 23 -1 17 2 20 11 12 7 -6 15 -7 18 -3 8 14 2 53 -8 51 -5 -2 -9 -7 -7 -13
2 -5 0 -6 -4 -2 -15 15 -12 35 5 32 9 -2 19 -4 24 -4 14 -2 -1 -74 -18 -87
-19 -14 -12 -34 11 -34 8 0 12 -4 9 -10 -3 -5 -1 -10 4 -10 14 0 14 13 0 27
-8 8 -7 13 2 18 8 5 10 4 5 -3 -4 -7 -2 -12 3 -12 6 0 11 4 11 10 0 6 9 6 26
-1 25 -9 26 -8 13 8 -12 15 -12 16 3 10 13 -5 16 -1 12 16 -11 49 -11 97 -2
104 7 3 8 1 4 -5 -4 -7 -2 -12 3 -12 6 0 11 6 11 13 0 7 5 5 10 -5 7 -10 19
-15 33 -13 20 4 21 3 4 -9 -14 -11 -15 -15 -4 -25 17 -13 27 -5 27 23 0 17 2
18 9 7 7 -12 13 -12 24 -3 7 7 18 8 22 4 5 -4 5 -2 1 5 -4 7 3 14 15 18 17 6
18 9 8 16 -8 4 -16 4 -20 -3 -4 -7 -12 -7 -24 -1 -12 7 -14 13 -6 17 6 4 11 4
11 0 0 -4 9 1 19 10 14 13 21 14 27 5 5 -8 3 -10 -7 -4 -8 5 -11 4 -6 0 15
-17 47 -15 47 3 0 14 2 15 10 2 6 -9 10 -10 10 -3 0 6 3 19 7 29 4 11 3 15 -4
11 -7 -5 -10 5 -9 28 1 32 -10 46 -38 49 -5 1 -11 8 -13 16 -4 13 -3 13 6 0 6
-8 11 -11 11 -5 0 5 5 4 12 -3 7 -7 20 -12 30 -12 10 0 18 -4 18 -10 0 -5 -4
-10 -10 -10 -8 0 -8 -10 -1 -49 1 -2 9 3 19 10 15 12 16 12 5 -2 -10 -12 -10
-18 0 -28 9 -10 8 -11 -5 -6 -11 4 -18 2 -18 -4 0 -6 9 -11 20 -11 11 0 20 5
20 11 0 5 4 8 9 4 6 -3 16 1 23 8 11 12 15 12 25 -2 11 -14 14 -14 23 -1 8 13
14 8 12 -11 -1 -4 8 -9 18 -12 11 -3 18 -1 14 4 -5 9 9 13 35 10 7 -2 10 2 6
8 -3 7 2 11 14 11 12 0 21 -4 21 -9 0 -5 3 -16 6 -25 4 -11 1 -16 -10 -16 -9
0 -16 5 -16 11 0 5 4 7 10 4 5 -3 7 0 4 9 -5 12 -9 13 -19 3 -7 -7 -12 -16
-12 -22 1 -5 -4 -9 -11 -7 -8 1 -11 -2 -8 -7 4 -5 15 -8 26 -6 13 3 20 -2 21
-13 0 -10 3 -12 6 -4 2 6 12 12 21 11 11 0 13 -2 4 -6 -10 -4 -10 -8 -1 -19
10 -13 14 -12 30 2 11 10 22 14 26 11 3 -4 1 -7 -7 -7 -10 0 -10 -3 0 -15 7
-8 16 -12 21 -9 5 3 6 -2 3 -10 -3 -9 -10 -13 -15 -10 -5 3 -9 1 -9 -4 0 -5
14 -12 30 -15 17 -4 30 -12 30 -19 0 -9 -3 -9 -12 0 -7 7 -19 12 -27 12 -13 0
-13 -2 -3 -9 8 -4 14 -12 14 -17 -1 -5 6 -8 15 -6 19 4 55 -27 46 -41 -3 -5
-1 -7 4 -4 6 4 14 0 17 -9 4 -11 13 -14 31 -10 20 5 23 3 18 -11 -6 -16 -5
-16 10 -5 14 12 19 12 32 -1 8 -9 15 -19 15 -23 0 -5 -5 -3 -12 4 -14 14 -32
16 -23 2 3 -5 0 -7 -8 -4 -7 2 -14 -1 -14 -9 0 -8 11 -13 29 -13 21 0 30 5 34
22 9 35 46 65 64 53 13 -9 12 -10 -2 -6 -9 3 -19 -1 -22 -9 -9 -24 -7 -27 7
-15 10 8 19 7 33 -3 17 -13 17 -14 -9 -9 -22 4 -27 2 -27 -14 0 -10 6 -25 13
-32 9 -10 9 -15 0 -18 -7 -2 -9 -11 -6 -20 4 -11 3 -14 -6 -9 -7 5 -10 14 -7
22 7 19 -8 18 -24 -1 -9 -11 -10 -15 -1 -15 7 0 19 -7 27 -15 18 -18 38 -20
28 -3 -5 7 -3 8 5 3 7 -4 11 -16 8 -26 -3 -11 -1 -17 3 -14 5 3 11 1 15 -5 8
-13 25 -13 25 1 0 5 -6 7 -12 3 -10 -6 -10 -5 -1 8 7 8 9 19 5 23 -4 5 -2 5 4
2 7 -4 15 0 18 9 5 12 0 14 -23 11 -15 -3 -35 -1 -42 4 -10 6 -7 8 11 7 40 -1
52 1 46 11 -4 5 -17 8 -31 6 -14 -1 -25 1 -26 4 0 3 -2 14 -4 24 -2 13 1 17
12 13 9 -4 21 -2 28 4 9 8 15 8 20 0 3 -5 -1 -10 -9 -10 -8 0 -18 -5 -21 -10
-4 -6 -3 -9 2 -8 9 3 58 -33 61 -44 1 -5 4 -8 7 -8 28 0 29 1 15 11 -13 9 -13
10 0 6 8 -2 16 -11 18 -20 2 -12 -1 -15 -12 -11 -19 7 -20 0 -5 -27 5 -11 14
-17 18 -14 5 3 12 -2 15 -11 3 -9 13 -14 21 -10 8 3 17 1 20 -5 4 -5 11 -7 16
-4 5 4 9 -1 9 -9 0 -19 11 -20 29 -3 11 10 11 8 0 -10 -7 -12 -17 -19 -21 -17
-4 3 -13 -7 -18 -21 -13 -34 -13 -35 8 -36 14 0 14 -2 -3 -9 -11 -5 -15 -9
-10 -9 6 -1 3 -6 -5 -12 -12 -8 -11 -9 5 -7 14 2 19 -2 17 -14 -3 -19 13 -24
23 -8 4 6 11 8 16 4 5 -3 7 -9 5 -13 -3 -4 6 -7 19 -7 13 0 21 4 19 8 -3 5 -9
6 -14 3 -9 -6 -23 25 -15 33 3 3 5 0 5 -6 0 -6 6 -9 13 -6 8 3 19 -2 26 -10
15 -18 1 -30 -40 -35 -6 0 -4 -7 5 -16 8 -8 20 -13 28 -12 7 2 10 2 6 0 -13
-8 -9 -23 5 -17 8 3 20 -10 30 -30 11 -24 21 -34 31 -30 12 5 13 10 4 24 -7
10 -17 16 -23 14 -5 -3 0 3 13 15 12 11 18 22 13 25 -5 4 -12 2 -16 -4 -8 -12
-25 -13 -25 -1 0 12 39 21 46 10 3 -5 9 -7 14 -4 11 7 52 -36 44 -44 -4 -3 -9
0 -11 7 -3 6 -9 10 -14 6 -5 -3 -9 -2 -8 3 3 20 -2 25 -16 13 -8 -7 -15 -20
-15 -29 0 -13 2 -13 9 -2 6 9 11 10 15 2 4 -6 3 -11 -2 -11 -4 0 -8 -13 -8
-30 0 -23 2 -27 13 -18 11 8 12 7 7 -6 -8 -21 15 -21 31 1 12 16 50 29 41 14
-3 -4 -1 -13 5 -21 7 -12 9 -11 9 5 0 16 2 17 10 5 15 -24 -13 -32 -31 -8 -11
14 -18 17 -23 9 -4 -6 -4 -11 1 -11 4 0 2 -4 -4 -8 -10 -6 -7 -15 10 -38 17
-23 29 -29 51 -27 26 2 27 1 10 -12 -18 -13 -18 -14 -2 -20 21 -8 38 1 38 22
0 13 2 14 17 2 9 -8 14 -9 10 -3 -4 6 3 20 14 30 18 16 19 16 13 1 -3 -9 -10
-17 -16 -17 -5 0 -7 -4 -4 -8 3 -4 1 -25 -4 -45 -6 -30 -5 -37 7 -37 8 0 12
-4 8 -9 -6 -11 40 -61 58 -61 7 0 6 -4 -3 -11 -13 -9 -13 -10 0 -8 36 4 43 0
30 -17 -12 -13 -10 -14 13 -3 15 7 24 16 21 20 -3 5 2 6 10 3 11 -4 14 -15 11
-31 -5 -31 19 -60 38 -45 7 6 19 7 26 3 9 -6 10 -11 2 -15 -6 -4 -16 -4 -22 0
-6 3 -3 -5 6 -20 9 -14 21 -23 26 -20 5 3 9 0 9 -6 0 -7 7 -10 15 -7 8 4 17 1
21 -5 5 -7 2 -8 -6 -3 -8 5 -11 3 -8 -6 3 -8 11 -13 18 -11 10 2 11 0 2 -11
-12 -14 1 -37 22 -37 5 0 1 7 -10 15 -18 13 -18 14 6 8 l25 -7 -18 27 c-12 19
-14 26 -5 25 8 -2 12 5 10 15 -2 9 2 17 8 17 5 0 10 6 10 14 0 8 4 18 10 21 5
3 7 0 4 -8 -3 -8 2 -20 11 -27 12 -10 15 -10 15 3 0 18 46 29 58 13 15 -19 21
-56 10 -63 -7 -3 -8 -1 -4 5 4 7 3 12 -3 12 -6 0 -8 7 -5 15 9 21 -3 34 -26
28 -12 -3 -19 -8 -16 -10 3 -3 -4 -14 -14 -26 -11 -11 -17 -25 -13 -30 4 -6
11 -3 18 6 11 15 13 15 24 -6 10 -18 11 -19 6 -2 -5 19 -5 20 10 1 15 -20 11
-41 -6 -30 -20 12 -69 15 -69 5 0 -6 5 -10 12 -9 7 2 13 -7 14 -19 1 -24 28
-56 38 -46 3 4 6 -1 6 -11 0 -9 4 -15 10 -11 5 3 6 13 3 23 -3 9 -3 14 1 11 4
-4 9 -19 12 -34 6 -33 42 -66 67 -61 9 2 15 0 11 -5 -3 -5 -13 -9 -22 -9 -15
-1 -15 -2 2 -15 10 -8 24 -12 29 -8 6 4 8 0 4 -11 -4 -9 -3 -15 2 -12 9 6 26
-22 23 -36 -1 -5 3 -8 9 -8 7 0 18 -8 25 -18 10 -12 13 -13 14 -3 0 8 -8 19
-17 26 -14 10 -15 16 -5 28 7 8 10 21 6 30 -6 17 11 32 21 17 3 -5 1 -10 -5
-10 -6 0 -8 -5 -5 -10 4 -6 2 -17 -5 -25 -9 -11 -7 -16 9 -25 12 -6 21 -19 21
-30 0 -21 16 -35 24 -21 4 5 2 12 -4 16 -5 3 -10 12 -10 18 1 20 24 -26 25
-48 0 -16 8 -21 43 -23 27 -2 42 1 42 8 0 7 -7 9 -17 6 -10 -4 -14 -4 -11 -1
4 4 3 18 -2 30 -8 20 -6 24 13 27 13 2 17 6 11 10 -6 4 -23 1 -37 -7 -27 -14
-27 -13 -25 15 1 16 6 27 10 24 4 -3 5 -11 1 -20 -4 -12 -1 -13 20 -3 17 8 23
17 20 30 -3 10 0 19 6 19 7 0 10 -10 7 -24 -2 -14 1 -27 7 -29 8 -2 6 -13 -7
-32 -16 -25 -17 -27 -2 -22 11 5 15 3 10 -4 -4 -7 -1 -10 7 -7 8 3 13 11 11
17 -1 6 3 11 9 11 5 0 7 5 3 12 -4 7 -3 8 5 4 9 -6 8 -14 -4 -32 -8 -13 -13
-25 -10 -25 3 -1 11 -2 17 -3 15 -1 24 -36 9 -36 -6 0 -8 8 -4 18 3 9 3 14 -2
10 -4 -4 -14 -3 -22 3 -10 9 -13 6 -11 -15 1 -14 8 -26 15 -26 7 0 13 -7 13
-16 0 -8 -4 -12 -10 -9 -15 9 -12 -11 3 -27 8 -7 16 -20 20 -28 3 -9 6 -10 6
-2 1 6 6 12 11 12 12 0 9 -22 -5 -32 -6 -5 -5 -8 3 -8 19 0 37 21 40 49 2 18
-1 21 -10 14 -20 -15 -41 -10 -44 11 -2 14 0 16 9 7 6 -6 15 -11 21 -11 5 0 6
3 3 6 -3 4 -2 15 3 25 7 13 6 19 -5 22 -10 3 -10 4 2 3 10 -1 17 -8 15 -15 -2
-9 3 -11 13 -8 9 4 15 1 15 -7 0 -10 -7 -12 -22 -9 -20 5 -19 3 7 -17 44 -34
53 -44 28 -31 -27 14 -30 4 -5 -16 9 -8 11 -12 5 -8 -7 3 -13 1 -13 -5 0 -6
-4 -9 -9 -6 -5 4 -8 -1 -7 -10 1 -9 10 -20 19 -26 9 -5 17 -17 17 -27 0 -14 7
-18 25 -16 19 3 25 -1 25 -16 0 -23 16 -25 28 -3 6 11 11 13 16 5 4 -6 2 -11
-5 -11 -10 0 -10 -3 0 -12 11 -11 14 -10 18 0 4 10 9 9 24 -4 10 -9 19 -13 19
-9 0 4 9 0 19 -9 14 -13 21 -14 26 -6 6 9 10 9 16 -1 6 -10 9 -10 9 -2 0 14
-19 27 -40 28 -8 0 -14 8 -14 17 1 14 -4 17 -22 14 -13 -3 -23 0 -21 6 3 17
-32 18 -48 1 -9 -8 -15 -10 -15 -3 0 6 7 13 15 16 13 5 13 9 3 23 -12 14 -11
15 5 2 9 -8 20 -11 24 -8 3 4 12 -1 19 -11 16 -23 45 -22 67 3 18 20 18 20 3
-5 -16 -24 -23 -60 -9 -47 3 4 12 2 20 -4 7 -6 13 -8 13 -4 0 4 7 1 16 -6 15
-12 16 -11 10 9 -5 15 -3 22 5 22 7 0 2 11 -11 25 -13 14 -20 25 -16 25 16 0
44 -46 39 -65 -2 -11 -5 -25 -5 -32 -1 -6 -7 -9 -14 -6 -6 2 -15 0 -18 -6 -4
-6 -13 -8 -21 -4 -10 3 -15 -1 -15 -11 0 -13 -8 -10 -32 14 -18 16 -39 28 -47
25 -7 -3 -19 -1 -26 5 -10 8 -15 8 -21 -1 -4 -7 -3 -9 3 -6 5 4 19 -3 31 -13
23 -22 37 -26 26 -8 -5 7 -3 8 5 4 7 -5 10 -14 7 -21 -4 -13 11 -35 26 -35 4
0 5 8 1 18 -5 14 -3 13 10 -3 11 -15 12 -22 4 -28 -8 -6 -7 -7 4 -4 9 3 22 1
30 -4 9 -6 10 -9 2 -9 -7 0 -10 -7 -7 -15 7 -17 34 -20 34 -4 0 8 4 8 13 1 6
-6 15 -11 20 -11 8 -1 8 -14 0 -21 -4 -3 -3 1 1 7 5 9 2 11 -9 6 -25 -9 4 -24
32 -16 17 4 23 1 23 -11 0 -9 5 -16 10 -16 6 0 10 -6 10 -12 -1 -7 -10 -2 -21
11 -16 20 -22 22 -32 11 -10 -10 -9 -11 3 -5 12 6 13 5 3 -6 -13 -13 -19 -38
-6 -26 3 4 17 0 30 -8 16 -11 23 -12 23 -4 0 7 3 9 6 6 4 -4 1 -13 -5 -21 -11
-13 -9 -15 8 -11 14 2 18 -1 14 -11 -3 -10 2 -14 18 -15 13 0 18 -3 11 -6 -10
-4 -9 -9 5 -20 10 -8 11 -11 3 -7 -12 6 -13 5 -2 -7 11 -12 14 -12 22 1 8 13
14 8 12 -11 -1 -3 6 -6 14 -7 8 -1 21 -3 29 -4 9 -1 14 -7 10 -16 -4 -11 1
-13 21 -8 22 6 24 5 12 -8 -7 -7 -17 -11 -23 -8 -5 3 -4 -2 4 -11 7 -9 17 -14
22 -11 5 3 9 0 9 -5 0 -6 5 -11 11 -11 5 0 8 4 5 8 -3 5 2 9 10 9 8 0 14 -7
12 -16 -1 -9 1 -22 5 -28 5 -7 5 -13 1 -13 -4 0 5 -9 19 -20 14 -11 31 -20 37
-20 8 0 10 -8 7 -21 -4 -16 -3 -18 9 -8 11 9 14 9 14 -1 0 -7 7 -10 15 -6 9 3
15 0 15 -8 0 -7 13 -24 29 -38 16 -15 31 -32 33 -40 4 -11 8 -11 20 0 13 10
17 10 22 -4 5 -13 9 -14 21 -4 8 7 15 8 15 3 0 -5 10 -9 23 -9 14 1 21 -4 19
-13 -2 -9 3 -11 13 -7 9 3 13 2 10 -4 -3 -6 1 -13 9 -16 23 -9 20 -24 -4 -19
-11 2 -20 0 -20 -6 0 -5 -5 -9 -10 -9 -7 0 -7 6 0 19 7 14 7 22 0 26 -6 4 -8
11 -5 16 4 5 -1 9 -10 9 -11 0 -15 -5 -12 -15 5 -11 -2 -9 -29 5 -42 24 -44
24 -44 5 0 -8 6 -12 14 -9 7 3 16 -2 20 -11 3 -9 10 -14 15 -11 10 7 51 -45
51 -63 0 -12 16 -15 23 -3 2 4 2 1 1 -5 -4 -14 26 -33 51 -33 12 0 15 6 10 23
-6 21 -5 21 8 -2 9 -14 17 -19 21 -13 3 6 2 13 -4 17 -15 9 -12 22 6 29 13 5
14 4 6 -7 -7 -8 -9 -17 -5 -20 3 -4 16 6 27 22 l22 29 10 -23 c10 -20 9 -22
-5 -17 -14 5 -14 4 -1 -12 8 -10 13 -32 13 -49 -1 -18 1 -26 3 -19 3 6 10 12
16 12 7 0 7 -5 -1 -13 -6 -8 -8 -17 -4 -20 3 -4 1 -7 -6 -7 -7 0 -9 -4 -6 -10
3 -6 -4 -10 -17 -11 -20 0 -20 -1 -5 -8 10 -4 19 -11 19 -16 0 -24 19 -44 35
-38 11 4 14 3 9 -6 -5 -7 -2 -10 6 -9 7 2 12 -3 10 -10 -1 -8 2 -11 7 -8 5 4
13 1 18 -6 4 -7 29 -28 56 -46 35 -25 47 -29 47 -18 0 14 -12 20 -32 17 -5 0
-8 4 -8 10 0 6 8 8 19 4 22 -7 53 4 45 16 -3 5 0 9 6 9 6 0 8 -11 6 -25 -4
-22 -2 -25 15 -20 13 4 19 2 19 -9 0 -9 5 -16 11 -16 5 0 7 6 3 13 -6 9 -5 9
7 0 10 -8 160 -11 554 -11 495 -1 535 0 480 14 -113 28 -196 78 -333 203 -121
110 -3781 3468 -3923 3599 -37 34 -71 62 -76 62 -5 0 -412 -307 -905 -683z"/>
<path d="M10225 1513 c-26 -138 -132 -295 -260 -383 -33 -23 -2040 -1000
-2221 -1081 -23 -10 -65 -25 -95 -33 -49 -14 19 -15 690 -15 l743 0 -6 22 -5
22 17 -22 c21 -27 87 -29 116 -5 18 16 19 16 13 -1 -7 -19 9 -24 16 -4 4 9 6
9 6 0 1 -7 10 -13 21 -13 13 0 18 5 14 15 -8 19 3 19 22 0 9 -8 23 -15 32 -14
13 0 11 3 -5 11 -13 6 -23 15 -23 21 0 5 7 4 15 -3 23 -19 31 -3 10 20 -16 18
-16 20 -2 20 11 0 18 -12 23 -35 7 -39 12 -40 19 -5 3 13 9 28 14 33 6 6 8 2
4 -12 -5 -22 3 -26 31 -15 13 5 14 10 5 20 -8 10 -6 12 10 9 12 -2 25 -6 30
-9 5 -4 8 2 6 11 -1 10 -8 17 -14 15 -9 -2 -9 3 -1 18 12 23 25 27 17 6 -7
-18 18 -42 28 -26 4 7 12 7 26 0 11 -7 19 -7 19 -1 0 5 -6 11 -12 14 -7 2 2 7
20 11 35 8 40 17 19 35 -17 13 -27 5 -20 -17 4 -15 3 -15 -6 -2 -10 13 -13 13
-25 -3 -7 -9 -17 -17 -21 -17 -4 0 -2 6 4 13 6 8 8 17 4 21 -12 12 -14 48 -2
41 6 -4 8 -13 5 -21 -3 -8 1 -14 8 -14 17 0 48 35 39 44 -4 4 0 4 10 0 10 -3
18 -1 18 5 1 6 2 15 3 20 0 6 7 16 15 23 12 11 12 10 5 -2 -5 -8 -10 -24 -11
-35 -2 -10 -7 -22 -11 -25 -14 -9 -7 -35 8 -32 46 11 60 11 60 1 0 -7 2 -10 5
-7 10 10 -8 39 -21 34 -8 -3 -14 -1 -14 5 0 6 -5 7 -12 3 -6 -4 -8 -3 -5 4 8
12 49 4 59 -12 5 -8 11 -7 20 2 9 9 9 12 -2 12 -7 0 -10 3 -7 6 4 4 13 1 22
-6 12 -10 15 -10 15 3 0 21 -31 37 -57 31 -12 -3 -24 -1 -27 4 -4 6 2 8 14 5
12 -3 20 0 20 7 0 10 3 10 15 0 8 -7 15 -9 15 -4 0 5 7 1 15 -10 7 -10 18 -15
23 -12 6 3 13 0 15 -6 4 -8 6 -7 6 4 1 9 6 20 13 24 7 5 8 3 3 -7 -8 -12 -6
-12 8 0 14 11 20 11 32 1 9 -7 18 -10 22 -6 3 3 1 6 -6 6 -8 0 -9 5 -1 19 5
11 7 27 4 35 -3 9 -1 16 6 16 6 0 8 -5 5 -10 -3 -6 -1 -10 4 -10 6 0 11 5 11
11 0 6 7 3 16 -6 12 -11 20 -13 27 -6 15 15 19 49 7 56 -6 3 -10 1 -10 -4 0
-6 -5 -11 -12 -11 -6 0 -8 3 -5 6 11 12 -13 43 -28 38 -8 -4 -15 -1 -15 5 0 8
12 10 36 5 25 -5 35 -3 30 4 -3 6 -2 13 3 16 5 3 12 -1 15 -10 4 -11 -1 -18
-15 -21 -20 -5 -20 -6 3 -17 15 -8 22 -19 20 -33 -2 -17 1 -20 18 -16 11 3 20
12 20 20 0 9 6 13 15 10 8 -4 17 -2 20 4 4 5 11 7 16 4 5 -4 12 1 15 9 3 9 16
16 28 16 11 0 36 9 54 20 26 16 31 24 23 34 -6 7 -8 16 -4 19 13 13 23 7 23
-15 0 -18 2 -20 9 -8 6 8 7 18 5 22 -8 12 10 10 23 -3 9 -9 10 -6 6 11 -5 20
-3 22 15 18 13 -4 23 0 26 9 5 11 1 14 -11 9 -16 -6 -17 -5 -2 7 15 11 17 65
18 545 1 293 0 532 -2 532 -3 0 -8 -17 -12 -37z"/>
</g>
</svg>
